<?xml version="1.0" encoding="utf-8" standalone="no"?>
<!DOCTYPE svg PUBLIC "-//W3C//DTD SVG 1.1//EN"
  "http://www.w3.org/Graphics/SVG/1.1/DTD/svg11.dtd">
<!-- Created with matplotlib (https://matplotlib.org/) -->
<svg height="273.06825pt" version="1.1" viewBox="0 0 875.935938 273.06825" width="875.935938pt" xmlns="http://www.w3.org/2000/svg" xmlns:xlink="http://www.w3.org/1999/xlink">
 <metadata>
  <rdf:RDF xmlns:cc="http://creativecommons.org/ns#" xmlns:dc="http://purl.org/dc/elements/1.1/" xmlns:rdf="http://www.w3.org/1999/02/22-rdf-syntax-ns#">
   <cc:Work>
    <dc:type rdf:resource="http://purl.org/dc/dcmitype/StillImage"/>
    <dc:date>2021-01-06T22:14:03.988603</dc:date>
    <dc:format>image/svg+xml</dc:format>
    <dc:creator>
     <cc:Agent>
      <dc:title>Matplotlib v3.3.3, https://matplotlib.org/</dc:title>
     </cc:Agent>
    </dc:creator>
   </cc:Work>
  </rdf:RDF>
 </metadata>
 <defs>
  <style type="text/css">*{stroke-linecap:butt;stroke-linejoin:round;}</style>
 </defs>
 <g id="figure_1">
  <g id="patch_1">
   <path d="M 0 273.06825 
L 875.935938 273.06825 
L 875.935938 0 
L 0 0 
z
" style="fill:none;"/>
  </g>
  <g id="axes_1">
   <g id="patch_2">
    <path d="M 40.603125 235.512 
L 598.603125 235.512 
L 598.603125 7.2 
L 40.603125 7.2 
z
" style="fill:#ffffff;"/>
   </g>
   <g id="PolyCollection_1">
    <path clip-path="url(#pcb39d8dbef)" d="M 450.561428 225.134182 
L 450.561428 225.134182 
L 450.561428 225.134182 
L 450.561428 225.134182 
z
" style="fill:#f77189;fill-opacity:0.2;stroke:#f77189;stroke-opacity:0.2;"/>
    <path clip-path="url(#pcb39d8dbef)" d="M 481.783413 220.521818 
L 481.783413 220.521818 
L 481.783413 220.521818 
L 481.783413 220.521818 
z
" style="fill:#f77189;fill-opacity:0.2;stroke:#f77189;stroke-opacity:0.2;"/>
    <path clip-path="url(#pcb39d8dbef)" d="M 564.153789 220.521818 
L 564.153789 220.521818 
L 564.15566 220.521818 
L 564.158488 220.521818 
L 564.160617 220.521818 
L 564.160838 220.521818 
L 564.160838 220.521818 
L 564.160838 220.521818 
L 564.160617 220.521818 
L 564.158488 220.521818 
L 564.15566 220.521818 
L 564.153789 220.521818 
z
" style="fill:#f77189;fill-opacity:0.2;stroke:#f77189;stroke-opacity:0.2;"/>
   </g>
   <g id="PolyCollection_2">
    <path clip-path="url(#pcb39d8dbef)" d="M 450.561428 220.521818 
L 450.561428 220.521818 
L 450.561428 220.521818 
L 450.561428 220.521818 
z
" style="fill:#f37a32;fill-opacity:0.2;stroke:#f37a32;stroke-opacity:0.2;"/>
    <path clip-path="url(#pcb39d8dbef)" d="M 481.783413 220.521818 
L 481.783413 220.521818 
L 481.783413 220.521818 
L 481.783413 220.521818 
z
" style="fill:#f37a32;fill-opacity:0.2;stroke:#f37a32;stroke-opacity:0.2;"/>
    <path clip-path="url(#pcb39d8dbef)" d="M 564.153789 220.521818 
L 564.153789 220.521818 
L 564.15566 220.521818 
L 564.158488 220.521818 
L 564.160617 220.521818 
L 564.160838 220.521818 
L 564.160838 220.521818 
L 564.160838 220.521818 
L 564.160617 220.521818 
L 564.158488 220.521818 
L 564.15566 220.521818 
L 564.153789 220.521818 
z
" style="fill:#f37a32;fill-opacity:0.2;stroke:#f37a32;stroke-opacity:0.2;"/>
   </g>
   <g id="PolyCollection_3">
    <path clip-path="url(#pcb39d8dbef)" d="M 450.561428 142.111636 
L 450.561428 142.111636 
L 450.561428 142.111636 
L 450.561428 142.111636 
z
" style="fill:#ca9232;fill-opacity:0.2;stroke:#ca9232;stroke-opacity:0.2;"/>
    <path clip-path="url(#pcb39d8dbef)" d="M 481.783413 151.336364 
L 481.783413 151.336364 
L 481.783413 151.336364 
L 481.783413 151.336364 
z
" style="fill:#ca9232;fill-opacity:0.2;stroke:#ca9232;stroke-opacity:0.2;"/>
    <path clip-path="url(#pcb39d8dbef)" d="M 564.153789 128.274545 
L 564.153789 142.111636 
L 564.15566 142.111636 
L 564.158488 142.111636 
L 564.160617 142.111636 
L 564.160838 142.111636 
L 564.160838 128.274545 
L 564.160838 128.274545 
L 564.160617 128.274545 
L 564.158488 128.274545 
L 564.15566 128.274545 
L 564.153789 128.274545 
z
" style="fill:#ca9232;fill-opacity:0.2;stroke:#ca9232;stroke-opacity:0.2;"/>
   </g>
   <g id="PolyCollection_4">
    <path clip-path="url(#pcb39d8dbef)" d="M 481.783413 220.521818 
L 481.783413 220.521818 
L 481.783413 220.521818 
L 481.783413 220.521818 
z
" style="fill:#ae9d31;fill-opacity:0.2;stroke:#ae9d31;stroke-opacity:0.2;"/>
    <path clip-path="url(#pcb39d8dbef)" d="M 564.153789 220.521818 
L 564.153789 220.521818 
L 564.15566 220.521818 
L 564.158488 220.521818 
L 564.160617 220.521818 
L 564.160838 220.521818 
L 564.160838 220.521818 
L 564.160838 220.521818 
L 564.160617 220.521818 
L 564.158488 220.521818 
L 564.15566 220.521818 
L 564.153789 220.521818 
z
" style="fill:#ae9d31;fill-opacity:0.2;stroke:#ae9d31;stroke-opacity:0.2;"/>
   </g>
   <g id="PolyCollection_5">
    <path clip-path="url(#pcb39d8dbef)" d="M 450.561428 215.909455 
L 450.561428 215.909455 
L 450.561428 215.909455 
L 450.561428 215.909455 
z
" style="fill:#8ea631;fill-opacity:0.2;stroke:#8ea631;stroke-opacity:0.2;"/>
    <path clip-path="url(#pcb39d8dbef)" d="M 481.783413 215.909455 
L 481.783413 215.909455 
L 481.783413 215.909455 
L 481.783413 215.909455 
z
" style="fill:#8ea631;fill-opacity:0.2;stroke:#8ea631;stroke-opacity:0.2;"/>
    <path clip-path="url(#pcb39d8dbef)" d="M 564.153789 202.072364 
L 564.153789 211.297091 
L 564.15566 211.297091 
L 564.158488 211.297091 
L 564.160617 211.297091 
L 564.160838 211.297091 
L 564.160838 202.072364 
L 564.160838 202.072364 
L 564.160617 202.072364 
L 564.158488 202.072364 
L 564.15566 202.072364 
L 564.153789 202.072364 
z
" style="fill:#8ea631;fill-opacity:0.2;stroke:#8ea631;stroke-opacity:0.2;"/>
   </g>
   <g id="PolyCollection_6">
    <path clip-path="url(#pcb39d8dbef)" d="M 450.561428 220.521818 
L 450.561428 220.521818 
L 450.561428 220.521818 
L 450.561428 220.521818 
z
" style="fill:#50b131;fill-opacity:0.2;stroke:#50b131;stroke-opacity:0.2;"/>
    <path clip-path="url(#pcb39d8dbef)" d="M 481.783413 220.521818 
L 481.783413 220.521818 
L 481.783413 220.521818 
L 481.783413 220.521818 
z
" style="fill:#50b131;fill-opacity:0.2;stroke:#50b131;stroke-opacity:0.2;"/>
    <path clip-path="url(#pcb39d8dbef)" d="M 564.153789 206.684727 
L 564.153789 220.521818 
L 564.15566 220.521818 
L 564.158488 220.521818 
L 564.160617 220.521818 
L 564.160838 220.521818 
L 564.160838 206.684727 
L 564.160838 206.684727 
L 564.160617 206.684727 
L 564.158488 206.684727 
L 564.15566 206.684727 
L 564.153789 206.684727 
z
" style="fill:#50b131;fill-opacity:0.2;stroke:#50b131;stroke-opacity:0.2;"/>
   </g>
   <g id="PolyCollection_7">
    <path clip-path="url(#pcb39d8dbef)" d="M 450.561428 188.235273 
L 450.561428 188.235273 
L 450.561428 188.235273 
L 450.561428 188.235273 
z
" style="fill:#33b07a;fill-opacity:0.2;stroke:#33b07a;stroke-opacity:0.2;"/>
    <path clip-path="url(#pcb39d8dbef)" d="M 481.783413 169.785818 
L 481.783413 169.785818 
L 481.783413 169.785818 
L 481.783413 169.785818 
z
" style="fill:#33b07a;fill-opacity:0.2;stroke:#33b07a;stroke-opacity:0.2;"/>
    <path clip-path="url(#pcb39d8dbef)" d="M 564.153789 123.662182 
L 564.153789 151.336364 
L 564.15566 151.336364 
L 564.158488 151.336364 
L 564.160617 151.336364 
L 564.160838 151.336364 
L 564.160838 123.662182 
L 564.160838 123.662182 
L 564.160617 123.662182 
L 564.158488 123.662182 
L 564.15566 123.662182 
L 564.153789 123.662182 
z
" style="fill:#33b07a;fill-opacity:0.2;stroke:#33b07a;stroke-opacity:0.2;"/>
   </g>
   <g id="PolyCollection_8">
    <path clip-path="url(#pcb39d8dbef)" d="M 450.561428 128.274545 
L 450.561428 128.274545 
L 450.561428 128.274545 
L 450.561428 128.274545 
z
" style="fill:#35ae99;fill-opacity:0.2;stroke:#35ae99;stroke-opacity:0.2;"/>
    <path clip-path="url(#pcb39d8dbef)" d="M 481.783413 68.313818 
L 481.783413 68.313818 
L 481.783413 68.313818 
L 481.783413 68.313818 
z
" style="fill:#35ae99;fill-opacity:0.2;stroke:#35ae99;stroke-opacity:0.2;"/>
    <path clip-path="url(#pcb39d8dbef)" d="M 564.153789 100.600364 
L 564.153789 123.662182 
L 564.15566 123.662182 
L 564.158488 123.662182 
L 564.160617 123.662182 
L 564.160838 123.662182 
L 564.160838 100.600364 
L 564.160838 100.600364 
L 564.160617 100.600364 
L 564.158488 100.600364 
L 564.15566 100.600364 
L 564.153789 100.600364 
z
" style="fill:#35ae99;fill-opacity:0.2;stroke:#35ae99;stroke-opacity:0.2;"/>
   </g>
   <g id="PolyCollection_9">
    <defs>
     <path d="M 564.153789 -130.956614 
L 564.153789 -130.956614 
L 564.15566 -130.956614 
L 564.158488 -130.956614 
L 564.160617 -130.956614 
L 564.160838 -130.956614 
L 564.160838 -130.956614 
L 564.160838 -130.956614 
L 564.160617 -130.956614 
L 564.158488 -130.956614 
L 564.15566 -130.956614 
L 564.153789 -130.956614 
z
" id="md06203dfcb" style="stroke:#38a9c5;stroke-opacity:0.2;"/>
    </defs>
    <g clip-path="url(#pcb39d8dbef)">
     <use style="fill:#38a9c5;fill-opacity:0.2;stroke:#38a9c5;stroke-opacity:0.2;" x="0" xlink:href="#md06203dfcb" y="273.06825"/>
    </g>
   </g>
   <g id="PolyCollection_10">
    <path clip-path="url(#pcb39d8dbef)" d="M 450.561428 220.521818 
L 450.561428 220.521818 
L 450.561428 220.521818 
L 450.561428 220.521818 
z
" style="fill:#3ba3ec;fill-opacity:0.2;stroke:#3ba3ec;stroke-opacity:0.2;"/>
    <path clip-path="url(#pcb39d8dbef)" d="M 481.783413 220.521818 
L 481.783413 220.521818 
L 481.783413 220.521818 
L 481.783413 220.521818 
z
" style="fill:#3ba3ec;fill-opacity:0.2;stroke:#3ba3ec;stroke-opacity:0.2;"/>
    <path clip-path="url(#pcb39d8dbef)" d="M 564.153789 211.297091 
L 564.153789 220.521818 
L 564.15566 220.521818 
L 564.158488 220.521818 
L 564.160617 220.521818 
L 564.160838 220.521818 
L 564.160838 211.297091 
L 564.160838 211.297091 
L 564.160617 211.297091 
L 564.158488 211.297091 
L 564.15566 211.297091 
L 564.153789 211.297091 
z
" style="fill:#3ba3ec;fill-opacity:0.2;stroke:#3ba3ec;stroke-opacity:0.2;"/>
   </g>
   <g id="PolyCollection_11">
    <path clip-path="url(#pcb39d8dbef)" d="M 450.561428 77.538545 
L 450.561428 77.538545 
L 450.561428 77.538545 
L 450.561428 77.538545 
z
" style="fill:#9591f4;fill-opacity:0.2;stroke:#9591f4;stroke-opacity:0.2;"/>
    <path clip-path="url(#pcb39d8dbef)" d="M 481.783413 77.538545 
L 481.783413 77.538545 
L 481.783413 77.538545 
L 481.783413 77.538545 
z
" style="fill:#9591f4;fill-opacity:0.2;stroke:#9591f4;stroke-opacity:0.2;"/>
    <path clip-path="url(#pcb39d8dbef)" d="M 564.153789 77.538545 
L 564.153789 77.538545 
L 564.15566 77.538545 
L 564.158488 77.538545 
L 564.160617 77.538545 
L 564.160838 77.538545 
L 564.160838 77.538545 
L 564.160838 77.538545 
L 564.160617 77.538545 
L 564.158488 77.538545 
L 564.15566 77.538545 
L 564.153789 77.538545 
z
" style="fill:#9591f4;fill-opacity:0.2;stroke:#9591f4;stroke-opacity:0.2;"/>
   </g>
   <g id="PolyCollection_12">
    <path clip-path="url(#pcb39d8dbef)" d="M 450.561428 128.274545 
L 450.561428 128.274545 
L 450.561428 128.274545 
L 450.561428 128.274545 
z
" style="fill:#cc7af4;fill-opacity:0.2;stroke:#cc7af4;stroke-opacity:0.2;"/>
    <path clip-path="url(#pcb39d8dbef)" d="M 481.783413 119.049818 
L 481.783413 119.049818 
L 481.783413 119.049818 
L 481.783413 119.049818 
z
" style="fill:#cc7af4;fill-opacity:0.2;stroke:#cc7af4;stroke-opacity:0.2;"/>
    <path clip-path="url(#pcb39d8dbef)" d="M 564.153789 114.437455 
L 564.153789 119.049818 
L 564.15566 119.049818 
L 564.158488 119.049818 
L 564.160617 119.049818 
L 564.160838 119.049818 
L 564.160838 114.437455 
L 564.160838 114.437455 
L 564.160617 114.437455 
L 564.158488 114.437455 
L 564.15566 114.437455 
L 564.153789 114.437455 
z
" style="fill:#cc7af4;fill-opacity:0.2;stroke:#cc7af4;stroke-opacity:0.2;"/>
   </g>
   <g id="PolyCollection_13">
    <path clip-path="url(#pcb39d8dbef)" d="M 481.783413 206.684727 
L 481.783413 206.684727 
L 481.783413 206.684727 
L 481.783413 206.684727 
z
" style="fill:#f560e4;fill-opacity:0.2;stroke:#f560e4;stroke-opacity:0.2;"/>
    <path clip-path="url(#pcb39d8dbef)" d="M 564.153789 183.622909 
L 564.153789 192.847636 
L 564.15566 192.847636 
L 564.158488 192.847636 
L 564.160617 192.847636 
L 564.160838 192.847636 
L 564.160838 183.622909 
L 564.160838 183.622909 
L 564.160617 183.622909 
L 564.158488 183.622909 
L 564.15566 183.622909 
L 564.153789 183.622909 
z
" style="fill:#f560e4;fill-opacity:0.2;stroke:#f560e4;stroke-opacity:0.2;"/>
   </g>
   <g id="matplotlib.axis_1">
    <g id="xtick_1">
     <g id="line2d_1">
      <defs>
       <path d="M 0 0 
L 0 3.5 
" id="mfedf0253bf" style="stroke:#000000;stroke-width:0.8;"/>
      </defs>
      <g>
       <use style="stroke:#000000;stroke-width:0.8;" x="92.773963" xlink:href="#mfedf0253bf" y="235.512"/>
      </g>
     </g>
     <g id="text_1">
      <!-- 2010 -->
      <g transform="translate(80.048963 250.110438)scale(0.1 -0.1)">
       <defs>
        <path d="M 19.1875 8.296875 
L 53.609375 8.296875 
L 53.609375 0 
L 7.328125 0 
L 7.328125 8.296875 
Q 12.9375 14.109375 22.625 23.890625 
Q 32.328125 33.6875 34.8125 36.53125 
Q 39.546875 41.84375 41.421875 45.53125 
Q 43.3125 49.21875 43.3125 52.78125 
Q 43.3125 58.59375 39.234375 62.25 
Q 35.15625 65.921875 28.609375 65.921875 
Q 23.96875 65.921875 18.8125 64.3125 
Q 13.671875 62.703125 7.8125 59.421875 
L 7.8125 69.390625 
Q 13.765625 71.78125 18.9375 73 
Q 24.125 74.21875 28.421875 74.21875 
Q 39.75 74.21875 46.484375 68.546875 
Q 53.21875 62.890625 53.21875 53.421875 
Q 53.21875 48.921875 51.53125 44.890625 
Q 49.859375 40.875 45.40625 35.40625 
Q 44.1875 33.984375 37.640625 27.21875 
Q 31.109375 20.453125 19.1875 8.296875 
z
" id="DejaVuSans-50"/>
        <path d="M 31.78125 66.40625 
Q 24.171875 66.40625 20.328125 58.90625 
Q 16.5 51.421875 16.5 36.375 
Q 16.5 21.390625 20.328125 13.890625 
Q 24.171875 6.390625 31.78125 6.390625 
Q 39.453125 6.390625 43.28125 13.890625 
Q 47.125 21.390625 47.125 36.375 
Q 47.125 51.421875 43.28125 58.90625 
Q 39.453125 66.40625 31.78125 66.40625 
z
M 31.78125 74.21875 
Q 44.046875 74.21875 50.515625 64.515625 
Q 56.984375 54.828125 56.984375 36.375 
Q 56.984375 17.96875 50.515625 8.265625 
Q 44.046875 -1.421875 31.78125 -1.421875 
Q 19.53125 -1.421875 13.0625 8.265625 
Q 6.59375 17.96875 6.59375 36.375 
Q 6.59375 54.828125 13.0625 64.515625 
Q 19.53125 74.21875 31.78125 74.21875 
z
" id="DejaVuSans-48"/>
        <path d="M 12.40625 8.296875 
L 28.515625 8.296875 
L 28.515625 63.921875 
L 10.984375 60.40625 
L 10.984375 69.390625 
L 28.421875 72.90625 
L 38.28125 72.90625 
L 38.28125 8.296875 
L 54.390625 8.296875 
L 54.390625 0 
L 12.40625 0 
z
" id="DejaVuSans-49"/>
       </defs>
       <use xlink:href="#DejaVuSans-50"/>
       <use x="63.623047" xlink:href="#DejaVuSans-48"/>
       <use x="127.246094" xlink:href="#DejaVuSans-49"/>
       <use x="190.869141" xlink:href="#DejaVuSans-48"/>
      </g>
     </g>
    </g>
    <g id="xtick_2">
     <g id="line2d_2">
      <g>
       <use style="stroke:#000000;stroke-width:0.8;" x="180.452567" xlink:href="#mfedf0253bf" y="235.512"/>
      </g>
     </g>
     <g id="text_2">
      <!-- 2012 -->
      <g transform="translate(167.727567 250.110438)scale(0.1 -0.1)">
       <use xlink:href="#DejaVuSans-50"/>
       <use x="63.623047" xlink:href="#DejaVuSans-48"/>
       <use x="127.246094" xlink:href="#DejaVuSans-49"/>
       <use x="190.869141" xlink:href="#DejaVuSans-50"/>
      </g>
     </g>
    </g>
    <g id="xtick_3">
     <g id="line2d_3">
      <g>
       <use style="stroke:#000000;stroke-width:0.8;" x="268.251279" xlink:href="#mfedf0253bf" y="235.512"/>
      </g>
     </g>
     <g id="text_3">
      <!-- 2014 -->
      <g transform="translate(255.526279 250.110438)scale(0.1 -0.1)">
       <defs>
        <path d="M 37.796875 64.3125 
L 12.890625 25.390625 
L 37.796875 25.390625 
z
M 35.203125 72.90625 
L 47.609375 72.90625 
L 47.609375 25.390625 
L 58.015625 25.390625 
L 58.015625 17.1875 
L 47.609375 17.1875 
L 47.609375 0 
L 37.796875 0 
L 37.796875 17.1875 
L 4.890625 17.1875 
L 4.890625 26.703125 
z
" id="DejaVuSans-52"/>
       </defs>
       <use xlink:href="#DejaVuSans-50"/>
       <use x="63.623047" xlink:href="#DejaVuSans-48"/>
       <use x="127.246094" xlink:href="#DejaVuSans-49"/>
       <use x="190.869141" xlink:href="#DejaVuSans-52"/>
      </g>
     </g>
    </g>
    <g id="xtick_4">
     <g id="line2d_4">
      <g>
       <use style="stroke:#000000;stroke-width:0.8;" x="355.929883" xlink:href="#mfedf0253bf" y="235.512"/>
      </g>
     </g>
     <g id="text_4">
      <!-- 2016 -->
      <g transform="translate(343.204883 250.110438)scale(0.1 -0.1)">
       <defs>
        <path d="M 33.015625 40.375 
Q 26.375 40.375 22.484375 35.828125 
Q 18.609375 31.296875 18.609375 23.390625 
Q 18.609375 15.53125 22.484375 10.953125 
Q 26.375 6.390625 33.015625 6.390625 
Q 39.65625 6.390625 43.53125 10.953125 
Q 47.40625 15.53125 47.40625 23.390625 
Q 47.40625 31.296875 43.53125 35.828125 
Q 39.65625 40.375 33.015625 40.375 
z
M 52.59375 71.296875 
L 52.59375 62.3125 
Q 48.875 64.0625 45.09375 64.984375 
Q 41.3125 65.921875 37.59375 65.921875 
Q 27.828125 65.921875 22.671875 59.328125 
Q 17.53125 52.734375 16.796875 39.40625 
Q 19.671875 43.65625 24.015625 45.921875 
Q 28.375 48.1875 33.59375 48.1875 
Q 44.578125 48.1875 50.953125 41.515625 
Q 57.328125 34.859375 57.328125 23.390625 
Q 57.328125 12.15625 50.6875 5.359375 
Q 44.046875 -1.421875 33.015625 -1.421875 
Q 20.359375 -1.421875 13.671875 8.265625 
Q 6.984375 17.96875 6.984375 36.375 
Q 6.984375 53.65625 15.1875 63.9375 
Q 23.390625 74.21875 37.203125 74.21875 
Q 40.921875 74.21875 44.703125 73.484375 
Q 48.484375 72.75 52.59375 71.296875 
z
" id="DejaVuSans-54"/>
       </defs>
       <use xlink:href="#DejaVuSans-50"/>
       <use x="63.623047" xlink:href="#DejaVuSans-48"/>
       <use x="127.246094" xlink:href="#DejaVuSans-49"/>
       <use x="190.869141" xlink:href="#DejaVuSans-54"/>
      </g>
     </g>
    </g>
    <g id="xtick_5">
     <g id="line2d_5">
      <g>
       <use style="stroke:#000000;stroke-width:0.8;" x="443.728595" xlink:href="#mfedf0253bf" y="235.512"/>
      </g>
     </g>
     <g id="text_5">
      <!-- 2018 -->
      <g transform="translate(431.003595 250.110438)scale(0.1 -0.1)">
       <defs>
        <path d="M 31.78125 34.625 
Q 24.75 34.625 20.71875 30.859375 
Q 16.703125 27.09375 16.703125 20.515625 
Q 16.703125 13.921875 20.71875 10.15625 
Q 24.75 6.390625 31.78125 6.390625 
Q 38.8125 6.390625 42.859375 10.171875 
Q 46.921875 13.96875 46.921875 20.515625 
Q 46.921875 27.09375 42.890625 30.859375 
Q 38.875 34.625 31.78125 34.625 
z
M 21.921875 38.8125 
Q 15.578125 40.375 12.03125 44.71875 
Q 8.5 49.078125 8.5 55.328125 
Q 8.5 64.0625 14.71875 69.140625 
Q 20.953125 74.21875 31.78125 74.21875 
Q 42.671875 74.21875 48.875 69.140625 
Q 55.078125 64.0625 55.078125 55.328125 
Q 55.078125 49.078125 51.53125 44.71875 
Q 48 40.375 41.703125 38.8125 
Q 48.828125 37.15625 52.796875 32.3125 
Q 56.78125 27.484375 56.78125 20.515625 
Q 56.78125 9.90625 50.3125 4.234375 
Q 43.84375 -1.421875 31.78125 -1.421875 
Q 19.734375 -1.421875 13.25 4.234375 
Q 6.78125 9.90625 6.78125 20.515625 
Q 6.78125 27.484375 10.78125 32.3125 
Q 14.796875 37.15625 21.921875 38.8125 
z
M 18.3125 54.390625 
Q 18.3125 48.734375 21.84375 45.5625 
Q 25.390625 42.390625 31.78125 42.390625 
Q 38.140625 42.390625 41.71875 45.5625 
Q 45.3125 48.734375 45.3125 54.390625 
Q 45.3125 60.0625 41.71875 63.234375 
Q 38.140625 66.40625 31.78125 66.40625 
Q 25.390625 66.40625 21.84375 63.234375 
Q 18.3125 60.0625 18.3125 54.390625 
z
" id="DejaVuSans-56"/>
       </defs>
       <use xlink:href="#DejaVuSans-50"/>
       <use x="63.623047" xlink:href="#DejaVuSans-48"/>
       <use x="127.246094" xlink:href="#DejaVuSans-49"/>
       <use x="190.869141" xlink:href="#DejaVuSans-56"/>
      </g>
     </g>
    </g>
    <g id="xtick_6">
     <g id="line2d_6">
      <g>
       <use style="stroke:#000000;stroke-width:0.8;" x="531.407199" xlink:href="#mfedf0253bf" y="235.512"/>
      </g>
     </g>
     <g id="text_6">
      <!-- 2020 -->
      <g transform="translate(518.682199 250.110438)scale(0.1 -0.1)">
       <use xlink:href="#DejaVuSans-50"/>
       <use x="63.623047" xlink:href="#DejaVuSans-48"/>
       <use x="127.246094" xlink:href="#DejaVuSans-50"/>
       <use x="190.869141" xlink:href="#DejaVuSans-48"/>
      </g>
     </g>
    </g>
    <g id="text_7">
     <!-- datetime -->
     <g transform="translate(297.032031 263.788563)scale(0.1 -0.1)">
      <defs>
       <path d="M 45.40625 46.390625 
L 45.40625 75.984375 
L 54.390625 75.984375 
L 54.390625 0 
L 45.40625 0 
L 45.40625 8.203125 
Q 42.578125 3.328125 38.25 0.953125 
Q 33.9375 -1.421875 27.875 -1.421875 
Q 17.96875 -1.421875 11.734375 6.484375 
Q 5.515625 14.40625 5.515625 27.296875 
Q 5.515625 40.1875 11.734375 48.09375 
Q 17.96875 56 27.875 56 
Q 33.9375 56 38.25 53.625 
Q 42.578125 51.265625 45.40625 46.390625 
z
M 14.796875 27.296875 
Q 14.796875 17.390625 18.875 11.75 
Q 22.953125 6.109375 30.078125 6.109375 
Q 37.203125 6.109375 41.296875 11.75 
Q 45.40625 17.390625 45.40625 27.296875 
Q 45.40625 37.203125 41.296875 42.84375 
Q 37.203125 48.484375 30.078125 48.484375 
Q 22.953125 48.484375 18.875 42.84375 
Q 14.796875 37.203125 14.796875 27.296875 
z
" id="DejaVuSans-100"/>
       <path d="M 34.28125 27.484375 
Q 23.390625 27.484375 19.1875 25 
Q 14.984375 22.515625 14.984375 16.5 
Q 14.984375 11.71875 18.140625 8.90625 
Q 21.296875 6.109375 26.703125 6.109375 
Q 34.1875 6.109375 38.703125 11.40625 
Q 43.21875 16.703125 43.21875 25.484375 
L 43.21875 27.484375 
z
M 52.203125 31.203125 
L 52.203125 0 
L 43.21875 0 
L 43.21875 8.296875 
Q 40.140625 3.328125 35.546875 0.953125 
Q 30.953125 -1.421875 24.3125 -1.421875 
Q 15.921875 -1.421875 10.953125 3.296875 
Q 6 8.015625 6 15.921875 
Q 6 25.140625 12.171875 29.828125 
Q 18.359375 34.515625 30.609375 34.515625 
L 43.21875 34.515625 
L 43.21875 35.40625 
Q 43.21875 41.609375 39.140625 45 
Q 35.0625 48.390625 27.6875 48.390625 
Q 23 48.390625 18.546875 47.265625 
Q 14.109375 46.140625 10.015625 43.890625 
L 10.015625 52.203125 
Q 14.9375 54.109375 19.578125 55.046875 
Q 24.21875 56 28.609375 56 
Q 40.484375 56 46.34375 49.84375 
Q 52.203125 43.703125 52.203125 31.203125 
z
" id="DejaVuSans-97"/>
       <path d="M 18.3125 70.21875 
L 18.3125 54.6875 
L 36.8125 54.6875 
L 36.8125 47.703125 
L 18.3125 47.703125 
L 18.3125 18.015625 
Q 18.3125 11.328125 20.140625 9.421875 
Q 21.96875 7.515625 27.59375 7.515625 
L 36.8125 7.515625 
L 36.8125 0 
L 27.59375 0 
Q 17.1875 0 13.234375 3.875 
Q 9.28125 7.765625 9.28125 18.015625 
L 9.28125 47.703125 
L 2.6875 47.703125 
L 2.6875 54.6875 
L 9.28125 54.6875 
L 9.28125 70.21875 
z
" id="DejaVuSans-116"/>
       <path d="M 56.203125 29.59375 
L 56.203125 25.203125 
L 14.890625 25.203125 
Q 15.484375 15.921875 20.484375 11.0625 
Q 25.484375 6.203125 34.421875 6.203125 
Q 39.59375 6.203125 44.453125 7.46875 
Q 49.3125 8.734375 54.109375 11.28125 
L 54.109375 2.78125 
Q 49.265625 0.734375 44.1875 -0.34375 
Q 39.109375 -1.421875 33.890625 -1.421875 
Q 20.796875 -1.421875 13.15625 6.1875 
Q 5.515625 13.8125 5.515625 26.8125 
Q 5.515625 40.234375 12.765625 48.109375 
Q 20.015625 56 32.328125 56 
Q 43.359375 56 49.78125 48.890625 
Q 56.203125 41.796875 56.203125 29.59375 
z
M 47.21875 32.234375 
Q 47.125 39.59375 43.09375 43.984375 
Q 39.0625 48.390625 32.421875 48.390625 
Q 24.90625 48.390625 20.390625 44.140625 
Q 15.875 39.890625 15.1875 32.171875 
z
" id="DejaVuSans-101"/>
       <path d="M 9.421875 54.6875 
L 18.40625 54.6875 
L 18.40625 0 
L 9.421875 0 
z
M 9.421875 75.984375 
L 18.40625 75.984375 
L 18.40625 64.59375 
L 9.421875 64.59375 
z
" id="DejaVuSans-105"/>
       <path d="M 52 44.1875 
Q 55.375 50.25 60.0625 53.125 
Q 64.75 56 71.09375 56 
Q 79.640625 56 84.28125 50.015625 
Q 88.921875 44.046875 88.921875 33.015625 
L 88.921875 0 
L 79.890625 0 
L 79.890625 32.71875 
Q 79.890625 40.578125 77.09375 44.375 
Q 74.3125 48.1875 68.609375 48.1875 
Q 61.625 48.1875 57.5625 43.546875 
Q 53.515625 38.921875 53.515625 30.90625 
L 53.515625 0 
L 44.484375 0 
L 44.484375 32.71875 
Q 44.484375 40.625 41.703125 44.40625 
Q 38.921875 48.1875 33.109375 48.1875 
Q 26.21875 48.1875 22.15625 43.53125 
Q 18.109375 38.875 18.109375 30.90625 
L 18.109375 0 
L 9.078125 0 
L 9.078125 54.6875 
L 18.109375 54.6875 
L 18.109375 46.1875 
Q 21.1875 51.21875 25.484375 53.609375 
Q 29.78125 56 35.6875 56 
Q 41.65625 56 45.828125 52.96875 
Q 50 49.953125 52 44.1875 
z
" id="DejaVuSans-109"/>
      </defs>
      <use xlink:href="#DejaVuSans-100"/>
      <use x="63.476562" xlink:href="#DejaVuSans-97"/>
      <use x="124.755859" xlink:href="#DejaVuSans-116"/>
      <use x="163.964844" xlink:href="#DejaVuSans-101"/>
      <use x="225.488281" xlink:href="#DejaVuSans-116"/>
      <use x="264.697266" xlink:href="#DejaVuSans-105"/>
      <use x="292.480469" xlink:href="#DejaVuSans-109"/>
      <use x="389.892578" xlink:href="#DejaVuSans-101"/>
     </g>
    </g>
   </g>
   <g id="matplotlib.axis_2">
    <g id="ytick_1">
     <g id="line2d_7">
      <defs>
       <path d="M 0 0 
L -3.5 0 
" id="mb35d526af1" style="stroke:#000000;stroke-width:0.8;"/>
      </defs>
      <g>
       <use style="stroke:#000000;stroke-width:0.8;" x="40.603125" xlink:href="#mb35d526af1" y="229.746545"/>
      </g>
     </g>
     <g id="text_8">
      <!-- 30 -->
      <g transform="translate(20.878125 233.545764)scale(0.1 -0.1)">
       <defs>
        <path d="M 40.578125 39.3125 
Q 47.65625 37.796875 51.625 33 
Q 55.609375 28.21875 55.609375 21.1875 
Q 55.609375 10.40625 48.1875 4.484375 
Q 40.765625 -1.421875 27.09375 -1.421875 
Q 22.515625 -1.421875 17.65625 -0.515625 
Q 12.796875 0.390625 7.625 2.203125 
L 7.625 11.71875 
Q 11.71875 9.328125 16.59375 8.109375 
Q 21.484375 6.890625 26.8125 6.890625 
Q 36.078125 6.890625 40.9375 10.546875 
Q 45.796875 14.203125 45.796875 21.1875 
Q 45.796875 27.640625 41.28125 31.265625 
Q 36.765625 34.90625 28.71875 34.90625 
L 20.21875 34.90625 
L 20.21875 43.015625 
L 29.109375 43.015625 
Q 36.375 43.015625 40.234375 45.921875 
Q 44.09375 48.828125 44.09375 54.296875 
Q 44.09375 59.90625 40.109375 62.90625 
Q 36.140625 65.921875 28.71875 65.921875 
Q 24.65625 65.921875 20.015625 65.03125 
Q 15.375 64.15625 9.8125 62.3125 
L 9.8125 71.09375 
Q 15.4375 72.65625 20.34375 73.4375 
Q 25.25 74.21875 29.59375 74.21875 
Q 40.828125 74.21875 47.359375 69.109375 
Q 53.90625 64.015625 53.90625 55.328125 
Q 53.90625 49.265625 50.4375 45.09375 
Q 46.96875 40.921875 40.578125 39.3125 
z
" id="DejaVuSans-51"/>
       </defs>
       <use xlink:href="#DejaVuSans-51"/>
       <use x="63.623047" xlink:href="#DejaVuSans-48"/>
      </g>
     </g>
    </g>
    <g id="ytick_2">
     <g id="line2d_8">
      <g>
       <use style="stroke:#000000;stroke-width:0.8;" x="40.603125" xlink:href="#mb35d526af1" y="183.622909"/>
      </g>
     </g>
     <g id="text_9">
      <!-- 40 -->
      <g transform="translate(20.878125 187.422128)scale(0.1 -0.1)">
       <use xlink:href="#DejaVuSans-52"/>
       <use x="63.623047" xlink:href="#DejaVuSans-48"/>
      </g>
     </g>
    </g>
    <g id="ytick_3">
     <g id="line2d_9">
      <g>
       <use style="stroke:#000000;stroke-width:0.8;" x="40.603125" xlink:href="#mb35d526af1" y="137.499273"/>
      </g>
     </g>
     <g id="text_10">
      <!-- 50 -->
      <g transform="translate(20.878125 141.298491)scale(0.1 -0.1)">
       <defs>
        <path d="M 10.796875 72.90625 
L 49.515625 72.90625 
L 49.515625 64.59375 
L 19.828125 64.59375 
L 19.828125 46.734375 
Q 21.96875 47.46875 24.109375 47.828125 
Q 26.265625 48.1875 28.421875 48.1875 
Q 40.625 48.1875 47.75 41.5 
Q 54.890625 34.8125 54.890625 23.390625 
Q 54.890625 11.625 47.5625 5.09375 
Q 40.234375 -1.421875 26.90625 -1.421875 
Q 22.3125 -1.421875 17.546875 -0.640625 
Q 12.796875 0.140625 7.71875 1.703125 
L 7.71875 11.625 
Q 12.109375 9.234375 16.796875 8.0625 
Q 21.484375 6.890625 26.703125 6.890625 
Q 35.15625 6.890625 40.078125 11.328125 
Q 45.015625 15.765625 45.015625 23.390625 
Q 45.015625 31 40.078125 35.4375 
Q 35.15625 39.890625 26.703125 39.890625 
Q 22.75 39.890625 18.8125 39.015625 
Q 14.890625 38.140625 10.796875 36.28125 
z
" id="DejaVuSans-53"/>
       </defs>
       <use xlink:href="#DejaVuSans-53"/>
       <use x="63.623047" xlink:href="#DejaVuSans-48"/>
      </g>
     </g>
    </g>
    <g id="ytick_4">
     <g id="line2d_10">
      <g>
       <use style="stroke:#000000;stroke-width:0.8;" x="40.603125" xlink:href="#mb35d526af1" y="91.375636"/>
      </g>
     </g>
     <g id="text_11">
      <!-- 60 -->
      <g transform="translate(20.878125 95.174855)scale(0.1 -0.1)">
       <use xlink:href="#DejaVuSans-54"/>
       <use x="63.623047" xlink:href="#DejaVuSans-48"/>
      </g>
     </g>
    </g>
    <g id="ytick_5">
     <g id="line2d_11">
      <g>
       <use style="stroke:#000000;stroke-width:0.8;" x="40.603125" xlink:href="#mb35d526af1" y="45.252"/>
      </g>
     </g>
     <g id="text_12">
      <!-- 70 -->
      <g transform="translate(20.878125 49.051219)scale(0.1 -0.1)">
       <defs>
        <path d="M 8.203125 72.90625 
L 55.078125 72.90625 
L 55.078125 68.703125 
L 28.609375 0 
L 18.3125 0 
L 43.21875 64.59375 
L 8.203125 64.59375 
z
" id="DejaVuSans-55"/>
       </defs>
       <use xlink:href="#DejaVuSans-55"/>
       <use x="63.623047" xlink:href="#DejaVuSans-48"/>
      </g>
     </g>
    </g>
    <g id="text_13">
     <!-- # classes -->
     <g transform="translate(14.798437 145.227875)rotate(-90)scale(0.1 -0.1)">
      <defs>
       <path d="M 51.125 44 
L 36.921875 44 
L 32.8125 27.6875 
L 47.125 27.6875 
z
M 43.796875 71.78125 
L 38.71875 51.515625 
L 52.984375 51.515625 
L 58.109375 71.78125 
L 65.921875 71.78125 
L 60.890625 51.515625 
L 76.125 51.515625 
L 76.125 44 
L 58.984375 44 
L 54.984375 27.6875 
L 70.515625 27.6875 
L 70.515625 20.21875 
L 53.078125 20.21875 
L 48 0 
L 40.1875 0 
L 45.21875 20.21875 
L 30.90625 20.21875 
L 25.875 0 
L 18.015625 0 
L 23.09375 20.21875 
L 7.71875 20.21875 
L 7.71875 27.6875 
L 24.90625 27.6875 
L 29 44 
L 13.28125 44 
L 13.28125 51.515625 
L 30.90625 51.515625 
L 35.890625 71.78125 
z
" id="DejaVuSans-35"/>
       <path id="DejaVuSans-32"/>
       <path d="M 48.78125 52.59375 
L 48.78125 44.1875 
Q 44.96875 46.296875 41.140625 47.34375 
Q 37.3125 48.390625 33.40625 48.390625 
Q 24.65625 48.390625 19.8125 42.84375 
Q 14.984375 37.3125 14.984375 27.296875 
Q 14.984375 17.28125 19.8125 11.734375 
Q 24.65625 6.203125 33.40625 6.203125 
Q 37.3125 6.203125 41.140625 7.25 
Q 44.96875 8.296875 48.78125 10.40625 
L 48.78125 2.09375 
Q 45.015625 0.34375 40.984375 -0.53125 
Q 36.96875 -1.421875 32.421875 -1.421875 
Q 20.0625 -1.421875 12.78125 6.34375 
Q 5.515625 14.109375 5.515625 27.296875 
Q 5.515625 40.671875 12.859375 48.328125 
Q 20.21875 56 33.015625 56 
Q 37.15625 56 41.109375 55.140625 
Q 45.0625 54.296875 48.78125 52.59375 
z
" id="DejaVuSans-99"/>
       <path d="M 9.421875 75.984375 
L 18.40625 75.984375 
L 18.40625 0 
L 9.421875 0 
z
" id="DejaVuSans-108"/>
       <path d="M 44.28125 53.078125 
L 44.28125 44.578125 
Q 40.484375 46.53125 36.375 47.5 
Q 32.28125 48.484375 27.875 48.484375 
Q 21.1875 48.484375 17.84375 46.4375 
Q 14.5 44.390625 14.5 40.28125 
Q 14.5 37.15625 16.890625 35.375 
Q 19.28125 33.59375 26.515625 31.984375 
L 29.59375 31.296875 
Q 39.15625 29.25 43.1875 25.515625 
Q 47.21875 21.78125 47.21875 15.09375 
Q 47.21875 7.46875 41.1875 3.015625 
Q 35.15625 -1.421875 24.609375 -1.421875 
Q 20.21875 -1.421875 15.453125 -0.5625 
Q 10.6875 0.296875 5.421875 2 
L 5.421875 11.28125 
Q 10.40625 8.6875 15.234375 7.390625 
Q 20.0625 6.109375 24.8125 6.109375 
Q 31.15625 6.109375 34.5625 8.28125 
Q 37.984375 10.453125 37.984375 14.40625 
Q 37.984375 18.0625 35.515625 20.015625 
Q 33.0625 21.96875 24.703125 23.78125 
L 21.578125 24.515625 
Q 13.234375 26.265625 9.515625 29.90625 
Q 5.8125 33.546875 5.8125 39.890625 
Q 5.8125 47.609375 11.28125 51.796875 
Q 16.75 56 26.8125 56 
Q 31.78125 56 36.171875 55.265625 
Q 40.578125 54.546875 44.28125 53.078125 
z
" id="DejaVuSans-115"/>
      </defs>
      <use xlink:href="#DejaVuSans-35"/>
      <use x="83.789062" xlink:href="#DejaVuSans-32"/>
      <use x="115.576172" xlink:href="#DejaVuSans-99"/>
      <use x="170.556641" xlink:href="#DejaVuSans-108"/>
      <use x="198.339844" xlink:href="#DejaVuSans-97"/>
      <use x="259.619141" xlink:href="#DejaVuSans-115"/>
      <use x="311.71875" xlink:href="#DejaVuSans-115"/>
      <use x="363.818359" xlink:href="#DejaVuSans-101"/>
      <use x="425.341797" xlink:href="#DejaVuSans-115"/>
     </g>
    </g>
   </g>
   <g id="line2d_12">
    <path clip-path="url(#pcb39d8dbef)" d="M 333.484552 225.134182 
L 481.769009 225.134182 
L 481.886321 220.521818 
L 573.239489 220.521818 
L 573.239489 220.521818 
" style="fill:none;stroke:#f77189;stroke-linecap:square;stroke-width:1.5;"/>
   </g>
   <g id="line2d_13">
    <path clip-path="url(#pcb39d8dbef)" d="M 402.143617 225.134182 
L 414.016292 225.134182 
L 414.024407 220.521818 
L 414.403386 225.134182 
L 428.926678 225.134182 
L 429.043087 220.521818 
L 429.162917 220.521818 
L 429.183518 225.134182 
L 429.183563 220.521818 
L 429.802242 225.134182 
L 429.90928 220.521818 
L 429.913804 225.134182 
L 430.005263 220.521818 
L 567.719721 220.521818 
L 567.759543 202.072364 
L 570.275146 202.072364 
L 570.721608 197.46 
L 570.779897 202.072364 
L 571.159927 202.072364 
L 571.304407 197.46 
L 571.626986 202.072364 
L 571.661666 197.46 
L 571.724492 202.072364 
L 571.840476 202.072364 
L 571.842982 206.684727 
L 571.904457 202.072364 
L 572.084527 202.072364 
L 572.13857 197.46 
L 573.239489 197.46 
L 573.239489 197.46 
" style="fill:none;stroke:#f37a32;stroke-linecap:square;stroke-width:1.5;"/>
   </g>
   <g id="line2d_14">
    <path clip-path="url(#pcb39d8dbef)" d="M 326.978334 169.785818 
L 334.02685 169.785818 
L 334.627604 155.948727 
L 343.770684 155.948727 
L 343.87176 142.111636 
L 470.237672 142.111636 
L 470.356648 151.336364 
L 514.564643 151.336364 
L 514.570254 142.111636 
L 559.195081 142.111636 
L 559.498144 128.274545 
L 563.677379 128.274545 
L 564.160838 135.193091 
L 564.281231 128.274545 
L 573.239489 128.274545 
L 573.239489 128.274545 
" style="fill:none;stroke:#ca9232;stroke-linecap:square;stroke-width:1.5;"/>
   </g>
   <g id="line2d_15">
    <path clip-path="url(#pcb39d8dbef)" d="M 461.846932 225.134182 
L 461.847998 225.134182 
L 461.940873 220.521818 
L 573.239489 220.521818 
L 573.239489 220.521818 
" style="fill:none;stroke:#ae9d31;stroke-linecap:square;stroke-width:1.5;"/>
   </g>
   <g id="line2d_16">
    <path clip-path="url(#pcb39d8dbef)" d="M 388.325945 225.134182 
L 398.645098 225.134182 
L 398.764474 215.909455 
L 401.064209 215.909455 
L 401.171771 211.297091 
L 402.970212 211.297091 
L 402.972528 225.134182 
L 403.136662 211.297091 
L 414.016292 211.297091 
L 414.024407 206.684727 
L 414.403386 211.297091 
L 416.259015 211.297091 
L 416.297716 225.134182 
L 416.446612 211.297091 
L 419.916271 211.297091 
L 419.923408 206.684727 
L 419.978801 211.297091 
L 420.11901 211.297091 
L 420.616906 206.684727 
L 421.064811 211.297091 
L 421.133107 206.684727 
L 421.227939 211.297091 
L 421.367991 206.684727 
L 446.692785 206.684727 
L 446.83085 215.909455 
L 526.702521 215.909455 
L 526.808595 211.297091 
L 559.195081 211.297091 
L 559.498144 202.072364 
L 563.677379 202.072364 
L 564.160838 206.684727 
L 564.281231 202.072364 
L 573.239489 202.072364 
L 573.239489 202.072364 
" style="fill:none;stroke:#8ea631;stroke-linecap:square;stroke-width:1.5;"/>
   </g>
   <g id="line2d_17">
    <path clip-path="url(#pcb39d8dbef)" d="M 326.653518 225.134182 
L 414.016292 225.134182 
L 414.024407 220.521818 
L 414.403386 225.134182 
L 429.913804 225.134182 
L 430.005263 220.521818 
L 432.065833 220.521818 
L 432.256829 225.134182 
L 432.861299 220.521818 
L 558.36584 220.521818 
L 558.415385 211.297091 
L 560.700361 211.297091 
L 560.815555 206.684727 
L 563.677379 206.684727 
L 564.160838 213.603273 
L 564.281231 206.684727 
L 571.840476 206.684727 
L 571.842982 211.297091 
L 571.904457 206.684727 
L 573.239489 206.684727 
L 573.239489 206.684727 
" style="fill:none;stroke:#50b131;stroke-linecap:square;stroke-width:1.5;"/>
   </g>
   <g id="line2d_18">
    <path clip-path="url(#pcb39d8dbef)" d="M 318.247597 220.521818 
L 364.106477 220.521818 
L 364.119206 206.684727 
L 364.198251 220.521818 
L 364.350291 220.521818 
L 364.536868 206.684727 
L 364.588478 220.521818 
L 373.174318 220.521818 
L 373.204779 206.684727 
L 373.448556 220.521818 
L 373.474846 206.684727 
L 373.544844 220.521818 
L 373.678579 206.684727 
L 374.141028 220.521818 
L 374.309397 197.46 
L 374.391809 220.521818 
L 374.403329 197.46 
L 374.510598 220.521818 
L 374.534295 197.46 
L 375.120961 220.521818 
L 375.522849 197.46 
L 375.644281 197.46 
L 375.699393 220.521818 
L 375.725842 202.072364 
L 375.946241 220.521818 
L 375.967381 192.847636 
L 375.981987 202.072364 
L 376.793305 220.521818 
L 380.416051 220.521818 
L 380.785802 202.072364 
L 380.925054 220.521818 
L 382.919281 220.521818 
L 383.064808 202.072364 
L 383.223119 202.072364 
L 383.406348 220.521818 
L 384.362207 202.072364 
L 387.468902 202.072364 
L 387.718847 220.521818 
L 387.82847 202.072364 
L 402.119571 202.072364 
L 402.143797 197.46 
L 402.6294 202.072364 
L 406.354754 202.072364 
L 406.364656 197.46 
L 414.016292 197.46 
L 414.024407 188.235273 
L 414.403386 197.46 
L 416.259015 197.46 
L 416.297716 202.072364 
L 416.446612 197.46 
L 418.246688 197.46 
L 418.603294 188.235273 
L 418.611226 197.46 
L 418.929929 188.235273 
L 419.978801 188.235273 
L 420.11901 197.46 
L 420.616906 188.235273 
L 421.064811 197.46 
L 421.133107 188.235273 
L 421.227939 197.46 
L 421.367991 188.235273 
L 458.488963 188.235273 
L 458.557214 183.622909 
L 459.334135 183.622909 
L 460.261341 179.010545 
L 461.124807 179.010545 
L 461.130765 169.785818 
L 461.156817 179.010545 
L 461.601078 169.785818 
L 461.606031 179.010545 
L 461.84431 179.010545 
L 461.940873 169.785818 
L 506.152102 169.785818 
L 506.974225 165.173455 
L 507.795583 169.785818 
L 508.664136 169.785818 
L 508.665665 165.173455 
L 510.450188 165.173455 
L 510.614542 155.948727 
L 523.095864 155.948727 
L 523.208084 151.336364 
L 559.195081 151.336364 
L 559.498144 123.662182 
L 563.677379 123.662182 
L 564.160838 137.499273 
L 564.281231 123.662182 
L 571.840476 123.662182 
L 571.842982 151.336364 
L 571.904457 123.662182 
L 573.239489 123.662182 
L 573.239489 123.662182 
" style="fill:none;stroke:#33b07a;stroke-linecap:square;stroke-width:1.5;"/>
   </g>
   <g id="line2d_19">
    <path clip-path="url(#pcb39d8dbef)" d="M 176.090825 225.134182 
L 310.920857 225.134182 
L 311.0315 220.521818 
L 329.685344 220.521818 
L 329.945921 202.072364 
L 333.667798 202.072364 
L 333.718974 183.622909 
L 372.592871 183.622909 
L 372.8553 160.561091 
L 373.204779 183.622909 
L 375.935237 183.622909 
L 375.981987 174.398182 
L 380.162892 174.398182 
L 380.416051 160.561091 
L 380.785802 174.398182 
L 380.925054 160.561091 
L 382.919281 160.561091 
L 383.064808 174.398182 
L 383.172433 174.398182 
L 383.223119 160.561091 
L 383.406348 174.398182 
L 384.362207 160.561091 
L 387.468902 160.561091 
L 387.718847 174.398182 
L 387.82847 160.561091 
L 395.167499 160.561091 
L 395.305586 155.948727 
L 395.895362 155.948727 
L 396.174186 151.336364 
L 402.119571 151.336364 
L 402.143797 128.274545 
L 402.6294 151.336364 
L 402.970212 151.336364 
L 402.972528 160.561091 
L 403.136662 151.336364 
L 404.296111 151.336364 
L 404.315856 132.886909 
L 407.304372 132.886909 
L 407.834124 128.274545 
L 416.259015 128.274545 
L 416.297716 160.561091 
L 416.446612 128.274545 
L 473.585176 128.274545 
L 473.605466 68.313818 
L 491.738057 68.313818 
L 492.691877 128.274545 
L 500.641632 128.274545 
L 500.985773 123.662182 
L 500.99095 128.274545 
L 501.006344 123.662182 
L 559.195081 123.662182 
L 559.498144 100.600364 
L 563.677379 100.600364 
L 564.160838 112.131273 
L 564.281231 100.600364 
L 571.840476 100.600364 
L 571.842982 206.684727 
L 571.904457 100.600364 
L 573.239489 100.600364 
L 573.239489 100.600364 
" style="fill:none;stroke:#35ae99;stroke-linecap:square;stroke-width:1.5;"/>
   </g>
   <g id="line2d_20">
    <path clip-path="url(#pcb39d8dbef)" d="M 559.475064 220.521818 
L 573.239489 220.521818 
L 573.239489 220.521818 
" style="fill:none;stroke:#36acae;stroke-linecap:square;stroke-width:1.5;"/>
   </g>
   <g id="line2d_21">
    <path clip-path="url(#pcb39d8dbef)" d="M 529.600312 146.724 
L 534.850373 146.724 
L 534.851025 142.111636 
L 573.239489 142.111636 
L 573.239489 142.111636 
" style="fill:none;stroke:#38a9c5;stroke-linecap:square;stroke-width:1.5;"/>
   </g>
   <g id="line2d_22">
    <path clip-path="url(#pcb39d8dbef)" d="M 409.690072 225.134182 
L 414.016292 225.134182 
L 414.024407 220.521818 
L 414.403386 225.134182 
L 421.954836 225.134182 
L 421.974725 220.521818 
L 422.092358 220.521818 
L 422.17371 225.134182 
L 422.184383 220.521818 
L 487.913512 220.521818 
L 487.91564 215.909455 
L 500.641632 215.909455 
L 500.985773 220.521818 
L 500.99095 215.909455 
L 501.006344 220.521818 
L 559.195081 220.521818 
L 559.498144 211.297091 
L 563.677379 211.297091 
L 564.160838 215.909455 
L 564.281231 211.297091 
L 573.239489 211.297091 
L 573.239489 211.297091 
" style="fill:none;stroke:#3ba3ec;stroke-linecap:square;stroke-width:1.5;"/>
   </g>
   <g id="line2d_23">
    <path clip-path="url(#pcb39d8dbef)" d="M 65.966761 82.150909 
L 134.869545 82.150909 
L 134.874934 77.538545 
L 168.50555 77.538545 
L 168.555834 45.252 
L 175.599506 45.252 
L 175.841742 40.639636 
L 203.118242 40.639636 
L 203.139052 17.577818 
L 203.228598 26.802545 
L 372.592871 26.802545 
L 372.8553 77.538545 
L 373.204779 26.802545 
L 380.85041 26.802545 
L 380.925054 82.150909 
L 382.812852 82.150909 
L 382.971253 26.802545 
L 383.172433 26.802545 
L 383.223119 77.538545 
L 383.406348 26.802545 
L 384.362207 77.538545 
L 387.468902 77.538545 
L 387.718847 26.802545 
L 387.82847 77.538545 
L 573.239489 77.538545 
L 573.239489 77.538545 
" style="fill:none;stroke:#9591f4;stroke-linecap:square;stroke-width:1.5;"/>
   </g>
   <g id="line2d_24">
    <path clip-path="url(#pcb39d8dbef)" d="M 168.735569 225.134182 
L 168.736247 225.134182 
L 168.838685 220.521818 
L 171.518903 220.521818 
L 171.545563 215.909455 
L 207.571348 215.909455 
L 208.657109 211.297091 
L 222.637245 211.297091 
L 222.826469 206.684727 
L 299.675824 206.684727 
L 299.727423 197.46 
L 300.336272 197.46 
L 300.938869 183.622909 
L 303.892907 183.622909 
L 304.253559 174.398182 
L 326.363821 174.398182 
L 326.484811 165.173455 
L 326.70716 165.173455 
L 326.995326 169.785818 
L 360.269854 169.785818 
L 360.382449 160.561091 
L 360.383928 169.785818 
L 360.958945 160.561091 
L 361.437977 169.785818 
L 362.487418 169.785818 
L 362.538162 160.561091 
L 362.572931 169.785818 
L 362.628542 169.785818 
L 362.638669 160.561091 
L 362.792806 169.785818 
L 362.794039 165.173455 
L 362.831912 160.561091 
L 414.016292 160.561091 
L 414.024407 128.274545 
L 414.403386 160.561091 
L 428.810563 160.561091 
L 428.848567 128.274545 
L 428.960498 160.561091 
L 429.183563 160.561091 
L 429.802242 128.274545 
L 429.90928 160.561091 
L 429.913804 128.274545 
L 430.005263 160.561091 
L 430.551817 160.561091 
L 430.755671 128.274545 
L 432.065833 128.274545 
L 432.256829 160.561091 
L 432.861299 128.274545 
L 459.334135 128.274545 
L 460.261341 119.049818 
L 559.195081 119.049818 
L 559.498144 114.437455 
L 563.677379 114.437455 
L 564.160838 116.743636 
L 564.281231 114.437455 
L 570.274948 114.437455 
L 570.275146 109.825091 
L 571.840476 109.825091 
L 571.842982 114.437455 
L 571.904457 109.825091 
L 573.239489 109.825091 
L 573.239489 109.825091 
" style="fill:none;stroke:#cc7af4;stroke-linecap:square;stroke-width:1.5;"/>
   </g>
   <g id="line2d_25">
    <path clip-path="url(#pcb39d8dbef)" d="M 283.452171 225.134182 
L 287.882207 225.134182 
L 288.158636 215.909455 
L 294.294808 215.909455 
L 294.411101 211.297091 
L 310.134953 211.297091 
L 310.601983 188.235273 
L 310.613168 192.847636 
L 318.172391 192.847636 
L 318.247597 179.010545 
L 320.713091 179.010545 
L 473.756892 225.134182 
L 474.237893 211.297091 
L 475.753343 211.297091 
L 475.773432 206.684727 
L 482.507517 206.684727 
L 482.631383 202.072364 
L 484.316776 202.072364 
L 485.126138 192.847636 
L 555.158511 192.847636 
L 555.290465 183.622909 
L 563.677379 183.622909 
L 564.160838 188.235273 
L 564.281231 183.622909 
L 573.239489 183.622909 
L 573.239489 183.622909 
" style="fill:none;stroke:#f560e4;stroke-linecap:square;stroke-width:1.5;"/>
   </g>
   <g id="line2d_26">
    <path clip-path="url(#pcb39d8dbef)" d="M 567.946115 225.134182 
L 568.639331 225.134182 
L 568.639744 225.134182 
L 568.640538 225.134182 
L 569.002828 225.134182 
L 569.014424 225.134182 
L 569.098276 225.134182 
L 569.098535 225.134182 
L 569.129494 225.134182 
L 569.129542 225.134182 
L 569.379742 225.134182 
L 569.981692 225.134182 
L 569.982756 225.134182 
L 570.053015 225.134182 
L 570.058623 225.134182 
L 570.09587 225.134182 
L 570.095901 225.134182 
L 570.171576 225.134182 
L 570.179359 225.134182 
L 570.182593 225.134182 
L 570.271193 225.134182 
L 570.271474 225.134182 
L 570.271948 225.134182 
L 570.272269 225.134182 
L 570.27233 225.134182 
L 570.272869 225.134182 
L 570.272958 225.134182 
L 570.273117 225.134182 
L 570.273286 225.134182 
L 570.273402 225.134182 
L 570.274948 225.134182 
L 570.275146 225.134182 
L 570.721608 220.521818 
L 570.752052 225.134182 
L 570.779897 225.134182 
L 571.145946 225.134182 
L 571.154023 225.134182 
L 571.159927 225.134182 
L 571.304407 220.521818 
L 571.612555 225.134182 
L 571.626986 225.134182 
L 571.661666 220.521818 
L 571.724492 225.134182 
L 571.741922 225.134182 
L 571.840476 225.134182 
L 571.853353 225.134182 
L 571.853838 225.134182 
L 571.859278 225.134182 
L 571.904096 225.134182 
L 571.904457 225.134182 
L 572.003236 225.134182 
L 572.003361 225.134182 
L 572.079907 225.134182 
L 572.083886 225.134182 
L 572.084092 225.134182 
L 572.084259 225.134182 
L 572.084527 225.134182 
L 572.100052 220.521818 
L 572.110668 220.521818 
L 572.11835 220.521818 
L 572.13857 220.521818 
L 572.24643 220.521818 
L 572.446013 220.521818 
L 572.564456 220.521818 
L 572.564535 220.521818 
L 572.565397 220.521818 
L 572.568726 220.521818 
L 572.641699 220.521818 
L 572.774618 220.521818 
L 572.795303 220.521818 
L 572.801321 220.521818 
L 572.918583 220.521818 
L 572.927441 220.521818 
L 572.931476 220.521818 
L 572.952857 220.521818 
L 572.993789 220.521818 
L 572.993875 220.521818 
L 572.995122 220.521818 
L 572.995866 220.521818 
L 572.996186 220.521818 
L 572.996223 220.521818 
L 573.032956 220.521818 
L 573.23359 220.521818 
L 573.2339 220.521818 
L 573.237537 220.521818 
L 573.239489 220.521818 
" style="fill:none;stroke:#f66ab7;stroke-linecap:square;stroke-width:1.5;"/>
   </g>
   <g id="line2d_27"/>
   <g id="line2d_28"/>
   <g id="line2d_29"/>
   <g id="line2d_30"/>
   <g id="line2d_31"/>
   <g id="line2d_32"/>
   <g id="line2d_33"/>
   <g id="line2d_34"/>
   <g id="line2d_35"/>
   <g id="line2d_36"/>
   <g id="line2d_37"/>
   <g id="line2d_38"/>
   <g id="line2d_39"/>
   <g id="line2d_40"/>
   <g id="line2d_41"/>
   <g id="patch_3">
    <path d="M 40.603125 235.512 
L 40.603125 7.2 
" style="fill:none;stroke:#000000;stroke-linecap:square;stroke-linejoin:miter;stroke-width:0.8;"/>
   </g>
   <g id="patch_4">
    <path d="M 598.603125 235.512 
L 598.603125 7.2 
" style="fill:none;stroke:#000000;stroke-linecap:square;stroke-linejoin:miter;stroke-width:0.8;"/>
   </g>
   <g id="patch_5">
    <path d="M 40.603125 235.512 
L 598.603125 235.512 
" style="fill:none;stroke:#000000;stroke-linecap:square;stroke-linejoin:miter;stroke-width:0.8;"/>
   </g>
   <g id="patch_6">
    <path d="M 40.603125 7.2 
L 598.603125 7.2 
" style="fill:none;stroke:#000000;stroke-linecap:square;stroke-linejoin:miter;stroke-width:0.8;"/>
   </g>
   <g id="legend_1">
    <g id="patch_7">
     <path d="M 628.503125 230.371875 
L 866.735937 230.371875 
Q 868.735937 230.371875 868.735937 228.371875 
L 868.735937 9.2 
Q 868.735937 7.2 866.735937 7.2 
L 628.503125 7.2 
Q 626.503125 7.2 626.503125 9.2 
L 626.503125 228.371875 
Q 626.503125 230.371875 628.503125 230.371875 
z
" style="fill:#ffffff;opacity:0.8;stroke:#cccccc;stroke-linejoin:miter;"/>
    </g>
    <g id="line2d_42">
     <path d="M 630.503125 15.298437 
L 650.503125 15.298437 
" style="fill:none;stroke:#f77189;stroke-linecap:square;stroke-width:1.5;"/>
    </g>
    <g id="line2d_43"/>
    <g id="text_14">
     <!-- org.apache.tika.batch -->
     <g transform="translate(658.503125 18.798437)scale(0.1 -0.1)">
      <defs>
       <path d="M 30.609375 48.390625 
Q 23.390625 48.390625 19.1875 42.75 
Q 14.984375 37.109375 14.984375 27.296875 
Q 14.984375 17.484375 19.15625 11.84375 
Q 23.34375 6.203125 30.609375 6.203125 
Q 37.796875 6.203125 41.984375 11.859375 
Q 46.1875 17.53125 46.1875 27.296875 
Q 46.1875 37.015625 41.984375 42.703125 
Q 37.796875 48.390625 30.609375 48.390625 
z
M 30.609375 56 
Q 42.328125 56 49.015625 48.375 
Q 55.71875 40.765625 55.71875 27.296875 
Q 55.71875 13.875 49.015625 6.21875 
Q 42.328125 -1.421875 30.609375 -1.421875 
Q 18.84375 -1.421875 12.171875 6.21875 
Q 5.515625 13.875 5.515625 27.296875 
Q 5.515625 40.765625 12.171875 48.375 
Q 18.84375 56 30.609375 56 
z
" id="DejaVuSans-111"/>
       <path d="M 41.109375 46.296875 
Q 39.59375 47.171875 37.8125 47.578125 
Q 36.03125 48 33.890625 48 
Q 26.265625 48 22.1875 43.046875 
Q 18.109375 38.09375 18.109375 28.8125 
L 18.109375 0 
L 9.078125 0 
L 9.078125 54.6875 
L 18.109375 54.6875 
L 18.109375 46.1875 
Q 20.953125 51.171875 25.484375 53.578125 
Q 30.03125 56 36.53125 56 
Q 37.453125 56 38.578125 55.875 
Q 39.703125 55.765625 41.0625 55.515625 
z
" id="DejaVuSans-114"/>
       <path d="M 45.40625 27.984375 
Q 45.40625 37.75 41.375 43.109375 
Q 37.359375 48.484375 30.078125 48.484375 
Q 22.859375 48.484375 18.828125 43.109375 
Q 14.796875 37.75 14.796875 27.984375 
Q 14.796875 18.265625 18.828125 12.890625 
Q 22.859375 7.515625 30.078125 7.515625 
Q 37.359375 7.515625 41.375 12.890625 
Q 45.40625 18.265625 45.40625 27.984375 
z
M 54.390625 6.78125 
Q 54.390625 -7.171875 48.1875 -13.984375 
Q 42 -20.796875 29.203125 -20.796875 
Q 24.46875 -20.796875 20.265625 -20.09375 
Q 16.0625 -19.390625 12.109375 -17.921875 
L 12.109375 -9.1875 
Q 16.0625 -11.328125 19.921875 -12.34375 
Q 23.78125 -13.375 27.78125 -13.375 
Q 36.625 -13.375 41.015625 -8.765625 
Q 45.40625 -4.15625 45.40625 5.171875 
L 45.40625 9.625 
Q 42.625 4.78125 38.28125 2.390625 
Q 33.9375 0 27.875 0 
Q 17.828125 0 11.671875 7.65625 
Q 5.515625 15.328125 5.515625 27.984375 
Q 5.515625 40.671875 11.671875 48.328125 
Q 17.828125 56 27.875 56 
Q 33.9375 56 38.28125 53.609375 
Q 42.625 51.21875 45.40625 46.390625 
L 45.40625 54.6875 
L 54.390625 54.6875 
z
" id="DejaVuSans-103"/>
       <path d="M 10.6875 12.40625 
L 21 12.40625 
L 21 0 
L 10.6875 0 
z
" id="DejaVuSans-46"/>
       <path d="M 18.109375 8.203125 
L 18.109375 -20.796875 
L 9.078125 -20.796875 
L 9.078125 54.6875 
L 18.109375 54.6875 
L 18.109375 46.390625 
Q 20.953125 51.265625 25.265625 53.625 
Q 29.59375 56 35.59375 56 
Q 45.5625 56 51.78125 48.09375 
Q 58.015625 40.1875 58.015625 27.296875 
Q 58.015625 14.40625 51.78125 6.484375 
Q 45.5625 -1.421875 35.59375 -1.421875 
Q 29.59375 -1.421875 25.265625 0.953125 
Q 20.953125 3.328125 18.109375 8.203125 
z
M 48.6875 27.296875 
Q 48.6875 37.203125 44.609375 42.84375 
Q 40.53125 48.484375 33.40625 48.484375 
Q 26.265625 48.484375 22.1875 42.84375 
Q 18.109375 37.203125 18.109375 27.296875 
Q 18.109375 17.390625 22.1875 11.75 
Q 26.265625 6.109375 33.40625 6.109375 
Q 40.53125 6.109375 44.609375 11.75 
Q 48.6875 17.390625 48.6875 27.296875 
z
" id="DejaVuSans-112"/>
       <path d="M 54.890625 33.015625 
L 54.890625 0 
L 45.90625 0 
L 45.90625 32.71875 
Q 45.90625 40.484375 42.875 44.328125 
Q 39.84375 48.1875 33.796875 48.1875 
Q 26.515625 48.1875 22.3125 43.546875 
Q 18.109375 38.921875 18.109375 30.90625 
L 18.109375 0 
L 9.078125 0 
L 9.078125 75.984375 
L 18.109375 75.984375 
L 18.109375 46.1875 
Q 21.34375 51.125 25.703125 53.5625 
Q 30.078125 56 35.796875 56 
Q 45.21875 56 50.046875 50.171875 
Q 54.890625 44.34375 54.890625 33.015625 
z
" id="DejaVuSans-104"/>
       <path d="M 9.078125 75.984375 
L 18.109375 75.984375 
L 18.109375 31.109375 
L 44.921875 54.6875 
L 56.390625 54.6875 
L 27.390625 29.109375 
L 57.625 0 
L 45.90625 0 
L 18.109375 26.703125 
L 18.109375 0 
L 9.078125 0 
z
" id="DejaVuSans-107"/>
       <path d="M 48.6875 27.296875 
Q 48.6875 37.203125 44.609375 42.84375 
Q 40.53125 48.484375 33.40625 48.484375 
Q 26.265625 48.484375 22.1875 42.84375 
Q 18.109375 37.203125 18.109375 27.296875 
Q 18.109375 17.390625 22.1875 11.75 
Q 26.265625 6.109375 33.40625 6.109375 
Q 40.53125 6.109375 44.609375 11.75 
Q 48.6875 17.390625 48.6875 27.296875 
z
M 18.109375 46.390625 
Q 20.953125 51.265625 25.265625 53.625 
Q 29.59375 56 35.59375 56 
Q 45.5625 56 51.78125 48.09375 
Q 58.015625 40.1875 58.015625 27.296875 
Q 58.015625 14.40625 51.78125 6.484375 
Q 45.5625 -1.421875 35.59375 -1.421875 
Q 29.59375 -1.421875 25.265625 0.953125 
Q 20.953125 3.328125 18.109375 8.203125 
L 18.109375 0 
L 9.078125 0 
L 9.078125 75.984375 
L 18.109375 75.984375 
z
" id="DejaVuSans-98"/>
      </defs>
      <use xlink:href="#DejaVuSans-111"/>
      <use x="61.181641" xlink:href="#DejaVuSans-114"/>
      <use x="100.544922" xlink:href="#DejaVuSans-103"/>
      <use x="164.021484" xlink:href="#DejaVuSans-46"/>
      <use x="195.808594" xlink:href="#DejaVuSans-97"/>
      <use x="257.087891" xlink:href="#DejaVuSans-112"/>
      <use x="320.564453" xlink:href="#DejaVuSans-97"/>
      <use x="381.84375" xlink:href="#DejaVuSans-99"/>
      <use x="436.824219" xlink:href="#DejaVuSans-104"/>
      <use x="500.203125" xlink:href="#DejaVuSans-101"/>
      <use x="561.726562" xlink:href="#DejaVuSans-46"/>
      <use x="593.513672" xlink:href="#DejaVuSans-116"/>
      <use x="632.722656" xlink:href="#DejaVuSans-105"/>
      <use x="660.505859" xlink:href="#DejaVuSans-107"/>
      <use x="716.666016" xlink:href="#DejaVuSans-97"/>
      <use x="777.945312" xlink:href="#DejaVuSans-46"/>
      <use x="809.732422" xlink:href="#DejaVuSans-98"/>
      <use x="873.208984" xlink:href="#DejaVuSans-97"/>
      <use x="934.488281" xlink:href="#DejaVuSans-116"/>
      <use x="973.697266" xlink:href="#DejaVuSans-99"/>
      <use x="1028.677734" xlink:href="#DejaVuSans-104"/>
     </g>
    </g>
    <g id="line2d_44">
     <path d="M 630.503125 29.976562 
L 650.503125 29.976562 
" style="fill:none;stroke:#f37a32;stroke-linecap:square;stroke-width:1.5;"/>
    </g>
    <g id="line2d_45"/>
    <g id="text_15">
     <!-- org.apache.tika.detect -->
     <g transform="translate(658.503125 33.476562)scale(0.1 -0.1)">
      <use xlink:href="#DejaVuSans-111"/>
      <use x="61.181641" xlink:href="#DejaVuSans-114"/>
      <use x="100.544922" xlink:href="#DejaVuSans-103"/>
      <use x="164.021484" xlink:href="#DejaVuSans-46"/>
      <use x="195.808594" xlink:href="#DejaVuSans-97"/>
      <use x="257.087891" xlink:href="#DejaVuSans-112"/>
      <use x="320.564453" xlink:href="#DejaVuSans-97"/>
      <use x="381.84375" xlink:href="#DejaVuSans-99"/>
      <use x="436.824219" xlink:href="#DejaVuSans-104"/>
      <use x="500.203125" xlink:href="#DejaVuSans-101"/>
      <use x="561.726562" xlink:href="#DejaVuSans-46"/>
      <use x="593.513672" xlink:href="#DejaVuSans-116"/>
      <use x="632.722656" xlink:href="#DejaVuSans-105"/>
      <use x="660.505859" xlink:href="#DejaVuSans-107"/>
      <use x="716.666016" xlink:href="#DejaVuSans-97"/>
      <use x="777.945312" xlink:href="#DejaVuSans-46"/>
      <use x="809.732422" xlink:href="#DejaVuSans-100"/>
      <use x="873.208984" xlink:href="#DejaVuSans-101"/>
      <use x="934.732422" xlink:href="#DejaVuSans-116"/>
      <use x="973.941406" xlink:href="#DejaVuSans-101"/>
      <use x="1035.464844" xlink:href="#DejaVuSans-99"/>
      <use x="1090.445312" xlink:href="#DejaVuSans-116"/>
     </g>
    </g>
    <g id="line2d_46">
     <path d="M 630.503125 44.654687 
L 650.503125 44.654687 
" style="fill:none;stroke:#ca9232;stroke-linecap:square;stroke-width:1.5;"/>
    </g>
    <g id="line2d_47"/>
    <g id="text_16">
     <!-- org.apache.tika.example -->
     <g transform="translate(658.503125 48.154687)scale(0.1 -0.1)">
      <defs>
       <path d="M 54.890625 54.6875 
L 35.109375 28.078125 
L 55.90625 0 
L 45.3125 0 
L 29.390625 21.484375 
L 13.484375 0 
L 2.875 0 
L 24.125 28.609375 
L 4.6875 54.6875 
L 15.28125 54.6875 
L 29.78125 35.203125 
L 44.28125 54.6875 
z
" id="DejaVuSans-120"/>
      </defs>
      <use xlink:href="#DejaVuSans-111"/>
      <use x="61.181641" xlink:href="#DejaVuSans-114"/>
      <use x="100.544922" xlink:href="#DejaVuSans-103"/>
      <use x="164.021484" xlink:href="#DejaVuSans-46"/>
      <use x="195.808594" xlink:href="#DejaVuSans-97"/>
      <use x="257.087891" xlink:href="#DejaVuSans-112"/>
      <use x="320.564453" xlink:href="#DejaVuSans-97"/>
      <use x="381.84375" xlink:href="#DejaVuSans-99"/>
      <use x="436.824219" xlink:href="#DejaVuSans-104"/>
      <use x="500.203125" xlink:href="#DejaVuSans-101"/>
      <use x="561.726562" xlink:href="#DejaVuSans-46"/>
      <use x="593.513672" xlink:href="#DejaVuSans-116"/>
      <use x="632.722656" xlink:href="#DejaVuSans-105"/>
      <use x="660.505859" xlink:href="#DejaVuSans-107"/>
      <use x="716.666016" xlink:href="#DejaVuSans-97"/>
      <use x="777.945312" xlink:href="#DejaVuSans-46"/>
      <use x="809.732422" xlink:href="#DejaVuSans-101"/>
      <use x="869.505859" xlink:href="#DejaVuSans-120"/>
      <use x="928.685547" xlink:href="#DejaVuSans-97"/>
      <use x="989.964844" xlink:href="#DejaVuSans-109"/>
      <use x="1087.376953" xlink:href="#DejaVuSans-112"/>
      <use x="1150.853516" xlink:href="#DejaVuSans-108"/>
      <use x="1178.636719" xlink:href="#DejaVuSans-101"/>
     </g>
    </g>
    <g id="line2d_48">
     <path d="M 630.503125 59.332812 
L 650.503125 59.332812 
" style="fill:none;stroke:#ae9d31;stroke-linecap:square;stroke-width:1.5;"/>
    </g>
    <g id="line2d_49"/>
    <g id="text_17">
     <!-- org.apache.tika.fork -->
     <g transform="translate(658.503125 62.832812)scale(0.1 -0.1)">
      <defs>
       <path d="M 37.109375 75.984375 
L 37.109375 68.5 
L 28.515625 68.5 
Q 23.6875 68.5 21.796875 66.546875 
Q 19.921875 64.59375 19.921875 59.515625 
L 19.921875 54.6875 
L 34.71875 54.6875 
L 34.71875 47.703125 
L 19.921875 47.703125 
L 19.921875 0 
L 10.890625 0 
L 10.890625 47.703125 
L 2.296875 47.703125 
L 2.296875 54.6875 
L 10.890625 54.6875 
L 10.890625 58.5 
Q 10.890625 67.625 15.140625 71.796875 
Q 19.390625 75.984375 28.609375 75.984375 
z
" id="DejaVuSans-102"/>
      </defs>
      <use xlink:href="#DejaVuSans-111"/>
      <use x="61.181641" xlink:href="#DejaVuSans-114"/>
      <use x="100.544922" xlink:href="#DejaVuSans-103"/>
      <use x="164.021484" xlink:href="#DejaVuSans-46"/>
      <use x="195.808594" xlink:href="#DejaVuSans-97"/>
      <use x="257.087891" xlink:href="#DejaVuSans-112"/>
      <use x="320.564453" xlink:href="#DejaVuSans-97"/>
      <use x="381.84375" xlink:href="#DejaVuSans-99"/>
      <use x="436.824219" xlink:href="#DejaVuSans-104"/>
      <use x="500.203125" xlink:href="#DejaVuSans-101"/>
      <use x="561.726562" xlink:href="#DejaVuSans-46"/>
      <use x="593.513672" xlink:href="#DejaVuSans-116"/>
      <use x="632.722656" xlink:href="#DejaVuSans-105"/>
      <use x="660.505859" xlink:href="#DejaVuSans-107"/>
      <use x="716.666016" xlink:href="#DejaVuSans-97"/>
      <use x="777.945312" xlink:href="#DejaVuSans-46"/>
      <use x="809.732422" xlink:href="#DejaVuSans-102"/>
      <use x="844.9375" xlink:href="#DejaVuSans-111"/>
      <use x="906.119141" xlink:href="#DejaVuSans-114"/>
      <use x="947.232422" xlink:href="#DejaVuSans-107"/>
     </g>
    </g>
    <g id="line2d_50">
     <path d="M 630.503125 74.010938 
L 650.503125 74.010938 
" style="fill:none;stroke:#8ea631;stroke-linecap:square;stroke-width:1.5;"/>
    </g>
    <g id="line2d_51"/>
    <g id="text_18">
     <!-- org.apache.tika.metadata -->
     <g transform="translate(658.503125 77.510938)scale(0.1 -0.1)">
      <use xlink:href="#DejaVuSans-111"/>
      <use x="61.181641" xlink:href="#DejaVuSans-114"/>
      <use x="100.544922" xlink:href="#DejaVuSans-103"/>
      <use x="164.021484" xlink:href="#DejaVuSans-46"/>
      <use x="195.808594" xlink:href="#DejaVuSans-97"/>
      <use x="257.087891" xlink:href="#DejaVuSans-112"/>
      <use x="320.564453" xlink:href="#DejaVuSans-97"/>
      <use x="381.84375" xlink:href="#DejaVuSans-99"/>
      <use x="436.824219" xlink:href="#DejaVuSans-104"/>
      <use x="500.203125" xlink:href="#DejaVuSans-101"/>
      <use x="561.726562" xlink:href="#DejaVuSans-46"/>
      <use x="593.513672" xlink:href="#DejaVuSans-116"/>
      <use x="632.722656" xlink:href="#DejaVuSans-105"/>
      <use x="660.505859" xlink:href="#DejaVuSans-107"/>
      <use x="716.666016" xlink:href="#DejaVuSans-97"/>
      <use x="777.945312" xlink:href="#DejaVuSans-46"/>
      <use x="809.732422" xlink:href="#DejaVuSans-109"/>
      <use x="907.144531" xlink:href="#DejaVuSans-101"/>
      <use x="968.667969" xlink:href="#DejaVuSans-116"/>
      <use x="1007.876953" xlink:href="#DejaVuSans-97"/>
      <use x="1069.15625" xlink:href="#DejaVuSans-100"/>
      <use x="1132.632812" xlink:href="#DejaVuSans-97"/>
      <use x="1193.912109" xlink:href="#DejaVuSans-116"/>
      <use x="1233.121094" xlink:href="#DejaVuSans-97"/>
     </g>
    </g>
    <g id="line2d_52">
     <path d="M 630.503125 88.689062 
L 650.503125 88.689062 
" style="fill:none;stroke:#50b131;stroke-linecap:square;stroke-width:1.5;"/>
    </g>
    <g id="line2d_53"/>
    <g id="text_19">
     <!-- org.apache.tika.mime -->
     <g transform="translate(658.503125 92.189062)scale(0.1 -0.1)">
      <use xlink:href="#DejaVuSans-111"/>
      <use x="61.181641" xlink:href="#DejaVuSans-114"/>
      <use x="100.544922" xlink:href="#DejaVuSans-103"/>
      <use x="164.021484" xlink:href="#DejaVuSans-46"/>
      <use x="195.808594" xlink:href="#DejaVuSans-97"/>
      <use x="257.087891" xlink:href="#DejaVuSans-112"/>
      <use x="320.564453" xlink:href="#DejaVuSans-97"/>
      <use x="381.84375" xlink:href="#DejaVuSans-99"/>
      <use x="436.824219" xlink:href="#DejaVuSans-104"/>
      <use x="500.203125" xlink:href="#DejaVuSans-101"/>
      <use x="561.726562" xlink:href="#DejaVuSans-46"/>
      <use x="593.513672" xlink:href="#DejaVuSans-116"/>
      <use x="632.722656" xlink:href="#DejaVuSans-105"/>
      <use x="660.505859" xlink:href="#DejaVuSans-107"/>
      <use x="716.666016" xlink:href="#DejaVuSans-97"/>
      <use x="777.945312" xlink:href="#DejaVuSans-46"/>
      <use x="809.732422" xlink:href="#DejaVuSans-109"/>
      <use x="907.144531" xlink:href="#DejaVuSans-105"/>
      <use x="934.927734" xlink:href="#DejaVuSans-109"/>
      <use x="1032.339844" xlink:href="#DejaVuSans-101"/>
     </g>
    </g>
    <g id="line2d_54">
     <path d="M 630.503125 103.367188 
L 650.503125 103.367188 
" style="fill:none;stroke:#33b07a;stroke-linecap:square;stroke-width:1.5;"/>
    </g>
    <g id="line2d_55"/>
    <g id="text_20">
     <!-- org.apache.tika.parser -->
     <g transform="translate(658.503125 106.867188)scale(0.1 -0.1)">
      <use xlink:href="#DejaVuSans-111"/>
      <use x="61.181641" xlink:href="#DejaVuSans-114"/>
      <use x="100.544922" xlink:href="#DejaVuSans-103"/>
      <use x="164.021484" xlink:href="#DejaVuSans-46"/>
      <use x="195.808594" xlink:href="#DejaVuSans-97"/>
      <use x="257.087891" xlink:href="#DejaVuSans-112"/>
      <use x="320.564453" xlink:href="#DejaVuSans-97"/>
      <use x="381.84375" xlink:href="#DejaVuSans-99"/>
      <use x="436.824219" xlink:href="#DejaVuSans-104"/>
      <use x="500.203125" xlink:href="#DejaVuSans-101"/>
      <use x="561.726562" xlink:href="#DejaVuSans-46"/>
      <use x="593.513672" xlink:href="#DejaVuSans-116"/>
      <use x="632.722656" xlink:href="#DejaVuSans-105"/>
      <use x="660.505859" xlink:href="#DejaVuSans-107"/>
      <use x="716.666016" xlink:href="#DejaVuSans-97"/>
      <use x="777.945312" xlink:href="#DejaVuSans-46"/>
      <use x="809.732422" xlink:href="#DejaVuSans-112"/>
      <use x="873.208984" xlink:href="#DejaVuSans-97"/>
      <use x="934.488281" xlink:href="#DejaVuSans-114"/>
      <use x="975.601562" xlink:href="#DejaVuSans-115"/>
      <use x="1027.701172" xlink:href="#DejaVuSans-101"/>
      <use x="1089.224609" xlink:href="#DejaVuSans-114"/>
     </g>
    </g>
    <g id="line2d_56">
     <path d="M 630.503125 118.045312 
L 650.503125 118.045312 
" style="fill:none;stroke:#35ae99;stroke-linecap:square;stroke-width:1.5;"/>
    </g>
    <g id="line2d_57"/>
    <g id="text_21">
     <!-- org.apache.tika.parser.microsoft -->
     <g transform="translate(658.503125 121.545312)scale(0.1 -0.1)">
      <use xlink:href="#DejaVuSans-111"/>
      <use x="61.181641" xlink:href="#DejaVuSans-114"/>
      <use x="100.544922" xlink:href="#DejaVuSans-103"/>
      <use x="164.021484" xlink:href="#DejaVuSans-46"/>
      <use x="195.808594" xlink:href="#DejaVuSans-97"/>
      <use x="257.087891" xlink:href="#DejaVuSans-112"/>
      <use x="320.564453" xlink:href="#DejaVuSans-97"/>
      <use x="381.84375" xlink:href="#DejaVuSans-99"/>
      <use x="436.824219" xlink:href="#DejaVuSans-104"/>
      <use x="500.203125" xlink:href="#DejaVuSans-101"/>
      <use x="561.726562" xlink:href="#DejaVuSans-46"/>
      <use x="593.513672" xlink:href="#DejaVuSans-116"/>
      <use x="632.722656" xlink:href="#DejaVuSans-105"/>
      <use x="660.505859" xlink:href="#DejaVuSans-107"/>
      <use x="716.666016" xlink:href="#DejaVuSans-97"/>
      <use x="777.945312" xlink:href="#DejaVuSans-46"/>
      <use x="809.732422" xlink:href="#DejaVuSans-112"/>
      <use x="873.208984" xlink:href="#DejaVuSans-97"/>
      <use x="934.488281" xlink:href="#DejaVuSans-114"/>
      <use x="975.601562" xlink:href="#DejaVuSans-115"/>
      <use x="1027.701172" xlink:href="#DejaVuSans-101"/>
      <use x="1089.224609" xlink:href="#DejaVuSans-114"/>
      <use x="1121.212891" xlink:href="#DejaVuSans-46"/>
      <use x="1153" xlink:href="#DejaVuSans-109"/>
      <use x="1250.412109" xlink:href="#DejaVuSans-105"/>
      <use x="1278.195312" xlink:href="#DejaVuSans-99"/>
      <use x="1333.175781" xlink:href="#DejaVuSans-114"/>
      <use x="1372.039062" xlink:href="#DejaVuSans-111"/>
      <use x="1433.220703" xlink:href="#DejaVuSans-115"/>
      <use x="1485.320312" xlink:href="#DejaVuSans-111"/>
      <use x="1546.501953" xlink:href="#DejaVuSans-102"/>
      <use x="1579.957031" xlink:href="#DejaVuSans-116"/>
     </g>
    </g>
    <g id="line2d_58">
     <path d="M 630.503125 132.723437 
L 650.503125 132.723437 
" style="fill:none;stroke:#36acae;stroke-linecap:square;stroke-width:1.5;"/>
    </g>
    <g id="line2d_59"/>
    <g id="text_22">
     <!-- org.apache.tika.parser.microsoft.chm -->
     <g transform="translate(658.503125 136.223437)scale(0.1 -0.1)">
      <use xlink:href="#DejaVuSans-111"/>
      <use x="61.181641" xlink:href="#DejaVuSans-114"/>
      <use x="100.544922" xlink:href="#DejaVuSans-103"/>
      <use x="164.021484" xlink:href="#DejaVuSans-46"/>
      <use x="195.808594" xlink:href="#DejaVuSans-97"/>
      <use x="257.087891" xlink:href="#DejaVuSans-112"/>
      <use x="320.564453" xlink:href="#DejaVuSans-97"/>
      <use x="381.84375" xlink:href="#DejaVuSans-99"/>
      <use x="436.824219" xlink:href="#DejaVuSans-104"/>
      <use x="500.203125" xlink:href="#DejaVuSans-101"/>
      <use x="561.726562" xlink:href="#DejaVuSans-46"/>
      <use x="593.513672" xlink:href="#DejaVuSans-116"/>
      <use x="632.722656" xlink:href="#DejaVuSans-105"/>
      <use x="660.505859" xlink:href="#DejaVuSans-107"/>
      <use x="716.666016" xlink:href="#DejaVuSans-97"/>
      <use x="777.945312" xlink:href="#DejaVuSans-46"/>
      <use x="809.732422" xlink:href="#DejaVuSans-112"/>
      <use x="873.208984" xlink:href="#DejaVuSans-97"/>
      <use x="934.488281" xlink:href="#DejaVuSans-114"/>
      <use x="975.601562" xlink:href="#DejaVuSans-115"/>
      <use x="1027.701172" xlink:href="#DejaVuSans-101"/>
      <use x="1089.224609" xlink:href="#DejaVuSans-114"/>
      <use x="1121.212891" xlink:href="#DejaVuSans-46"/>
      <use x="1153" xlink:href="#DejaVuSans-109"/>
      <use x="1250.412109" xlink:href="#DejaVuSans-105"/>
      <use x="1278.195312" xlink:href="#DejaVuSans-99"/>
      <use x="1333.175781" xlink:href="#DejaVuSans-114"/>
      <use x="1372.039062" xlink:href="#DejaVuSans-111"/>
      <use x="1433.220703" xlink:href="#DejaVuSans-115"/>
      <use x="1485.320312" xlink:href="#DejaVuSans-111"/>
      <use x="1546.501953" xlink:href="#DejaVuSans-102"/>
      <use x="1579.957031" xlink:href="#DejaVuSans-116"/>
      <use x="1619.166016" xlink:href="#DejaVuSans-46"/>
      <use x="1650.953125" xlink:href="#DejaVuSans-99"/>
      <use x="1705.933594" xlink:href="#DejaVuSans-104"/>
      <use x="1769.3125" xlink:href="#DejaVuSans-109"/>
     </g>
    </g>
    <g id="line2d_60">
     <path d="M 630.503125 147.401562 
L 650.503125 147.401562 
" style="fill:none;stroke:#38a9c5;stroke-linecap:square;stroke-width:1.5;"/>
    </g>
    <g id="line2d_61"/>
    <g id="text_23">
     <!-- org.apache.tika.parser.microsoft.onenote -->
     <g transform="translate(658.503125 150.901562)scale(0.1 -0.1)">
      <defs>
       <path d="M 54.890625 33.015625 
L 54.890625 0 
L 45.90625 0 
L 45.90625 32.71875 
Q 45.90625 40.484375 42.875 44.328125 
Q 39.84375 48.1875 33.796875 48.1875 
Q 26.515625 48.1875 22.3125 43.546875 
Q 18.109375 38.921875 18.109375 30.90625 
L 18.109375 0 
L 9.078125 0 
L 9.078125 54.6875 
L 18.109375 54.6875 
L 18.109375 46.1875 
Q 21.34375 51.125 25.703125 53.5625 
Q 30.078125 56 35.796875 56 
Q 45.21875 56 50.046875 50.171875 
Q 54.890625 44.34375 54.890625 33.015625 
z
" id="DejaVuSans-110"/>
      </defs>
      <use xlink:href="#DejaVuSans-111"/>
      <use x="61.181641" xlink:href="#DejaVuSans-114"/>
      <use x="100.544922" xlink:href="#DejaVuSans-103"/>
      <use x="164.021484" xlink:href="#DejaVuSans-46"/>
      <use x="195.808594" xlink:href="#DejaVuSans-97"/>
      <use x="257.087891" xlink:href="#DejaVuSans-112"/>
      <use x="320.564453" xlink:href="#DejaVuSans-97"/>
      <use x="381.84375" xlink:href="#DejaVuSans-99"/>
      <use x="436.824219" xlink:href="#DejaVuSans-104"/>
      <use x="500.203125" xlink:href="#DejaVuSans-101"/>
      <use x="561.726562" xlink:href="#DejaVuSans-46"/>
      <use x="593.513672" xlink:href="#DejaVuSans-116"/>
      <use x="632.722656" xlink:href="#DejaVuSans-105"/>
      <use x="660.505859" xlink:href="#DejaVuSans-107"/>
      <use x="716.666016" xlink:href="#DejaVuSans-97"/>
      <use x="777.945312" xlink:href="#DejaVuSans-46"/>
      <use x="809.732422" xlink:href="#DejaVuSans-112"/>
      <use x="873.208984" xlink:href="#DejaVuSans-97"/>
      <use x="934.488281" xlink:href="#DejaVuSans-114"/>
      <use x="975.601562" xlink:href="#DejaVuSans-115"/>
      <use x="1027.701172" xlink:href="#DejaVuSans-101"/>
      <use x="1089.224609" xlink:href="#DejaVuSans-114"/>
      <use x="1121.212891" xlink:href="#DejaVuSans-46"/>
      <use x="1153" xlink:href="#DejaVuSans-109"/>
      <use x="1250.412109" xlink:href="#DejaVuSans-105"/>
      <use x="1278.195312" xlink:href="#DejaVuSans-99"/>
      <use x="1333.175781" xlink:href="#DejaVuSans-114"/>
      <use x="1372.039062" xlink:href="#DejaVuSans-111"/>
      <use x="1433.220703" xlink:href="#DejaVuSans-115"/>
      <use x="1485.320312" xlink:href="#DejaVuSans-111"/>
      <use x="1546.501953" xlink:href="#DejaVuSans-102"/>
      <use x="1579.957031" xlink:href="#DejaVuSans-116"/>
      <use x="1619.166016" xlink:href="#DejaVuSans-46"/>
      <use x="1650.953125" xlink:href="#DejaVuSans-111"/>
      <use x="1712.134766" xlink:href="#DejaVuSans-110"/>
      <use x="1775.513672" xlink:href="#DejaVuSans-101"/>
      <use x="1837.037109" xlink:href="#DejaVuSans-110"/>
      <use x="1900.416016" xlink:href="#DejaVuSans-111"/>
      <use x="1961.597656" xlink:href="#DejaVuSans-116"/>
      <use x="2000.806641" xlink:href="#DejaVuSans-101"/>
     </g>
    </g>
    <g id="line2d_62">
     <path d="M 630.503125 162.079687 
L 650.503125 162.079687 
" style="fill:none;stroke:#3ba3ec;stroke-linecap:square;stroke-width:1.5;"/>
    </g>
    <g id="line2d_63"/>
    <g id="text_24">
     <!-- org.apache.tika.parser.microsoft.ooxml -->
     <g transform="translate(658.503125 165.579687)scale(0.1 -0.1)">
      <use xlink:href="#DejaVuSans-111"/>
      <use x="61.181641" xlink:href="#DejaVuSans-114"/>
      <use x="100.544922" xlink:href="#DejaVuSans-103"/>
      <use x="164.021484" xlink:href="#DejaVuSans-46"/>
      <use x="195.808594" xlink:href="#DejaVuSans-97"/>
      <use x="257.087891" xlink:href="#DejaVuSans-112"/>
      <use x="320.564453" xlink:href="#DejaVuSans-97"/>
      <use x="381.84375" xlink:href="#DejaVuSans-99"/>
      <use x="436.824219" xlink:href="#DejaVuSans-104"/>
      <use x="500.203125" xlink:href="#DejaVuSans-101"/>
      <use x="561.726562" xlink:href="#DejaVuSans-46"/>
      <use x="593.513672" xlink:href="#DejaVuSans-116"/>
      <use x="632.722656" xlink:href="#DejaVuSans-105"/>
      <use x="660.505859" xlink:href="#DejaVuSans-107"/>
      <use x="716.666016" xlink:href="#DejaVuSans-97"/>
      <use x="777.945312" xlink:href="#DejaVuSans-46"/>
      <use x="809.732422" xlink:href="#DejaVuSans-112"/>
      <use x="873.208984" xlink:href="#DejaVuSans-97"/>
      <use x="934.488281" xlink:href="#DejaVuSans-114"/>
      <use x="975.601562" xlink:href="#DejaVuSans-115"/>
      <use x="1027.701172" xlink:href="#DejaVuSans-101"/>
      <use x="1089.224609" xlink:href="#DejaVuSans-114"/>
      <use x="1121.212891" xlink:href="#DejaVuSans-46"/>
      <use x="1153" xlink:href="#DejaVuSans-109"/>
      <use x="1250.412109" xlink:href="#DejaVuSans-105"/>
      <use x="1278.195312" xlink:href="#DejaVuSans-99"/>
      <use x="1333.175781" xlink:href="#DejaVuSans-114"/>
      <use x="1372.039062" xlink:href="#DejaVuSans-111"/>
      <use x="1433.220703" xlink:href="#DejaVuSans-115"/>
      <use x="1485.320312" xlink:href="#DejaVuSans-111"/>
      <use x="1546.501953" xlink:href="#DejaVuSans-102"/>
      <use x="1579.957031" xlink:href="#DejaVuSans-116"/>
      <use x="1619.166016" xlink:href="#DejaVuSans-46"/>
      <use x="1650.953125" xlink:href="#DejaVuSans-111"/>
      <use x="1712.134766" xlink:href="#DejaVuSans-111"/>
      <use x="1770.191406" xlink:href="#DejaVuSans-120"/>
      <use x="1829.371094" xlink:href="#DejaVuSans-109"/>
      <use x="1926.783203" xlink:href="#DejaVuSans-108"/>
     </g>
    </g>
    <g id="line2d_64">
     <path d="M 630.503125 176.757812 
L 650.503125 176.757812 
" style="fill:none;stroke:#9591f4;stroke-linecap:square;stroke-width:1.5;"/>
    </g>
    <g id="line2d_65"/>
    <g id="text_25">
     <!-- org.apache.tika.parser.txt -->
     <g transform="translate(658.503125 180.257812)scale(0.1 -0.1)">
      <use xlink:href="#DejaVuSans-111"/>
      <use x="61.181641" xlink:href="#DejaVuSans-114"/>
      <use x="100.544922" xlink:href="#DejaVuSans-103"/>
      <use x="164.021484" xlink:href="#DejaVuSans-46"/>
      <use x="195.808594" xlink:href="#DejaVuSans-97"/>
      <use x="257.087891" xlink:href="#DejaVuSans-112"/>
      <use x="320.564453" xlink:href="#DejaVuSans-97"/>
      <use x="381.84375" xlink:href="#DejaVuSans-99"/>
      <use x="436.824219" xlink:href="#DejaVuSans-104"/>
      <use x="500.203125" xlink:href="#DejaVuSans-101"/>
      <use x="561.726562" xlink:href="#DejaVuSans-46"/>
      <use x="593.513672" xlink:href="#DejaVuSans-116"/>
      <use x="632.722656" xlink:href="#DejaVuSans-105"/>
      <use x="660.505859" xlink:href="#DejaVuSans-107"/>
      <use x="716.666016" xlink:href="#DejaVuSans-97"/>
      <use x="777.945312" xlink:href="#DejaVuSans-46"/>
      <use x="809.732422" xlink:href="#DejaVuSans-112"/>
      <use x="873.208984" xlink:href="#DejaVuSans-97"/>
      <use x="934.488281" xlink:href="#DejaVuSans-114"/>
      <use x="975.601562" xlink:href="#DejaVuSans-115"/>
      <use x="1027.701172" xlink:href="#DejaVuSans-101"/>
      <use x="1089.224609" xlink:href="#DejaVuSans-114"/>
      <use x="1121.212891" xlink:href="#DejaVuSans-46"/>
      <use x="1153" xlink:href="#DejaVuSans-116"/>
      <use x="1192.208984" xlink:href="#DejaVuSans-120"/>
      <use x="1251.388672" xlink:href="#DejaVuSans-116"/>
     </g>
    </g>
    <g id="line2d_66">
     <path d="M 630.503125 191.435937 
L 650.503125 191.435937 
" style="fill:none;stroke:#cc7af4;stroke-linecap:square;stroke-width:1.5;"/>
    </g>
    <g id="line2d_67"/>
    <g id="text_26">
     <!-- org.apache.tika.sax -->
     <g transform="translate(658.503125 194.935937)scale(0.1 -0.1)">
      <use xlink:href="#DejaVuSans-111"/>
      <use x="61.181641" xlink:href="#DejaVuSans-114"/>
      <use x="100.544922" xlink:href="#DejaVuSans-103"/>
      <use x="164.021484" xlink:href="#DejaVuSans-46"/>
      <use x="195.808594" xlink:href="#DejaVuSans-97"/>
      <use x="257.087891" xlink:href="#DejaVuSans-112"/>
      <use x="320.564453" xlink:href="#DejaVuSans-97"/>
      <use x="381.84375" xlink:href="#DejaVuSans-99"/>
      <use x="436.824219" xlink:href="#DejaVuSans-104"/>
      <use x="500.203125" xlink:href="#DejaVuSans-101"/>
      <use x="561.726562" xlink:href="#DejaVuSans-46"/>
      <use x="593.513672" xlink:href="#DejaVuSans-116"/>
      <use x="632.722656" xlink:href="#DejaVuSans-105"/>
      <use x="660.505859" xlink:href="#DejaVuSans-107"/>
      <use x="716.666016" xlink:href="#DejaVuSans-97"/>
      <use x="777.945312" xlink:href="#DejaVuSans-46"/>
      <use x="809.732422" xlink:href="#DejaVuSans-115"/>
      <use x="861.832031" xlink:href="#DejaVuSans-97"/>
      <use x="923.111328" xlink:href="#DejaVuSans-120"/>
     </g>
    </g>
    <g id="line2d_68">
     <path d="M 630.503125 206.114062 
L 650.503125 206.114062 
" style="fill:none;stroke:#f560e4;stroke-linecap:square;stroke-width:1.5;"/>
    </g>
    <g id="line2d_69"/>
    <g id="text_27">
     <!-- org.apache.tika.server -->
     <g transform="translate(658.503125 209.614062)scale(0.1 -0.1)">
      <defs>
       <path d="M 2.984375 54.6875 
L 12.5 54.6875 
L 29.59375 8.796875 
L 46.6875 54.6875 
L 56.203125 54.6875 
L 35.6875 0 
L 23.484375 0 
z
" id="DejaVuSans-118"/>
      </defs>
      <use xlink:href="#DejaVuSans-111"/>
      <use x="61.181641" xlink:href="#DejaVuSans-114"/>
      <use x="100.544922" xlink:href="#DejaVuSans-103"/>
      <use x="164.021484" xlink:href="#DejaVuSans-46"/>
      <use x="195.808594" xlink:href="#DejaVuSans-97"/>
      <use x="257.087891" xlink:href="#DejaVuSans-112"/>
      <use x="320.564453" xlink:href="#DejaVuSans-97"/>
      <use x="381.84375" xlink:href="#DejaVuSans-99"/>
      <use x="436.824219" xlink:href="#DejaVuSans-104"/>
      <use x="500.203125" xlink:href="#DejaVuSans-101"/>
      <use x="561.726562" xlink:href="#DejaVuSans-46"/>
      <use x="593.513672" xlink:href="#DejaVuSans-116"/>
      <use x="632.722656" xlink:href="#DejaVuSans-105"/>
      <use x="660.505859" xlink:href="#DejaVuSans-107"/>
      <use x="716.666016" xlink:href="#DejaVuSans-97"/>
      <use x="777.945312" xlink:href="#DejaVuSans-46"/>
      <use x="809.732422" xlink:href="#DejaVuSans-115"/>
      <use x="861.832031" xlink:href="#DejaVuSans-101"/>
      <use x="923.355469" xlink:href="#DejaVuSans-114"/>
      <use x="964.46875" xlink:href="#DejaVuSans-118"/>
      <use x="1023.648438" xlink:href="#DejaVuSans-101"/>
      <use x="1085.171875" xlink:href="#DejaVuSans-114"/>
     </g>
    </g>
    <g id="line2d_70">
     <path d="M 630.503125 220.792187 
L 650.503125 220.792187 
" style="fill:none;stroke:#f66ab7;stroke-linecap:square;stroke-width:1.5;"/>
    </g>
    <g id="line2d_71"/>
    <g id="text_28">
     <!-- org.apache.tika.utils -->
     <g transform="translate(658.503125 224.292187)scale(0.1 -0.1)">
      <defs>
       <path d="M 8.5 21.578125 
L 8.5 54.6875 
L 17.484375 54.6875 
L 17.484375 21.921875 
Q 17.484375 14.15625 20.5 10.265625 
Q 23.53125 6.390625 29.59375 6.390625 
Q 36.859375 6.390625 41.078125 11.03125 
Q 45.3125 15.671875 45.3125 23.6875 
L 45.3125 54.6875 
L 54.296875 54.6875 
L 54.296875 0 
L 45.3125 0 
L 45.3125 8.40625 
Q 42.046875 3.421875 37.71875 1 
Q 33.40625 -1.421875 27.6875 -1.421875 
Q 18.265625 -1.421875 13.375 4.4375 
Q 8.5 10.296875 8.5 21.578125 
z
M 31.109375 56 
z
" id="DejaVuSans-117"/>
      </defs>
      <use xlink:href="#DejaVuSans-111"/>
      <use x="61.181641" xlink:href="#DejaVuSans-114"/>
      <use x="100.544922" xlink:href="#DejaVuSans-103"/>
      <use x="164.021484" xlink:href="#DejaVuSans-46"/>
      <use x="195.808594" xlink:href="#DejaVuSans-97"/>
      <use x="257.087891" xlink:href="#DejaVuSans-112"/>
      <use x="320.564453" xlink:href="#DejaVuSans-97"/>
      <use x="381.84375" xlink:href="#DejaVuSans-99"/>
      <use x="436.824219" xlink:href="#DejaVuSans-104"/>
      <use x="500.203125" xlink:href="#DejaVuSans-101"/>
      <use x="561.726562" xlink:href="#DejaVuSans-46"/>
      <use x="593.513672" xlink:href="#DejaVuSans-116"/>
      <use x="632.722656" xlink:href="#DejaVuSans-105"/>
      <use x="660.505859" xlink:href="#DejaVuSans-107"/>
      <use x="716.666016" xlink:href="#DejaVuSans-97"/>
      <use x="777.945312" xlink:href="#DejaVuSans-46"/>
      <use x="809.732422" xlink:href="#DejaVuSans-117"/>
      <use x="873.111328" xlink:href="#DejaVuSans-116"/>
      <use x="912.320312" xlink:href="#DejaVuSans-105"/>
      <use x="940.103516" xlink:href="#DejaVuSans-108"/>
      <use x="967.886719" xlink:href="#DejaVuSans-115"/>
     </g>
    </g>
   </g>
  </g>
 </g>
 <defs>
  <clipPath id="pcb39d8dbef">
   <rect height="228.312" width="558" x="40.603125" y="7.2"/>
  </clipPath>
 </defs>
</svg>